/* XPM */
static char *_06ca39d665849dfcd1ba83f4c6b4ebctMeG0L2VFcMJojbB_7[] = {
/* columns rows colors chars-per-pixel */
"32 32 8 1 ",
"  c black",
". c #BD8C21",
"X c white",
"o c #FFFF42",
"O c #FFD639",
"+ c #C39634",
"@ c None",
"# c black",
/* pixels */
"@@@@@@@@@@@@@@  @@@@@@@@@@@@@@@@",
"@@@@@@@@@@@@@@  @@@@@@@@@@@@@@@@",
"@@@@XX@@@@@@  ..  @@@@@@@@@@@@@@",
"@@@@XX@@@@@@  ..  @@@@@@@@@@@@@@",
"@@@@XX@@@@@@  OO  @@@@@@@@@@@@@@",
"@@@@XX@@@@@@  OO  @@@@@@@@@@@@@@",
"@@XXXXXX@@  .+oooo  @@@@@@@@@@@@",
"@@XXXXXX@@  .+oooo  @@@@@@@@@@@@",
"@@@@XX@@@@  .+XXoo  @@@@@@@@@@@@",
"@@@@XX@@@@  ++XXoo  @@@@@@@@@@@@",
"@@@@XX@@  ..OOXXoooo  @@@@@@@@@@",
"@@@@XX@@  ..OOXXoooo  @@@@@@@@@@",
"@@@@@@@@  .+XXoooooo  @@@@@@@@@@",
"@@@@@@@@  .+XXoooooo  @@@@@@@@@@",
"@@@@@@  .+OOXXooooOOoo  @@@@@@@@",
"@@@@@@  .+OOXXooooOOoo  @@@@@@@@",
"@@@@@@  .+XXXXooXXOOoo  @@@@@@@@",
"@@@@@@  .+XXXXooXXOOoo  @@@@@@@@",
"@@@@@@  .+XXooooooOOooOO  @@@@@@",
"@@@@@@  ++XXooooooOOooOO  @@@@@@",
"@@@@  .+XXooooooOOooOOOO  @@@@@@",
"@@@@  .+XXooooooOOooOOOO  @@@@@@",
"@@@@  .+XXooooOOOOooOOooOO  @@@@",
"@@@@  ++XXooooOOOOooOOooOO  @@@@",
"@@  ..OOooooXXOOooooOO      @@@@",
"@@  ..OOooooXXOOooooOO      @@@@",
"@@  ..OOOOOOOO        @@@@@@@@@@",
"@@  ..OOOOOOOO        @@@@@@@@@@",
"@@            @@@@@@@@@@@@@@@@@@",
"@@            @@@@@@@@@@@@@@@@@@",
"@@@@@@@@@@@@@@@@@@@@@@@@@@@@@@@@",
"@@@@@@@@@@@@@@@@@@@@@@@@@@@@@@@@"
};
