/* XPM */
static char *_06ca39d665849dfcd1ba83f4c6b4ebctMeG0L2VFcMJojbB_0[] = {
/* columns rows colors chars-per-pixel */
"32 32 8 1 ",
"  c black",
". c #BD8C21",
"X c white",
"o c #FFFF42",
"O c #FFD639",
"+ c #C39634",
"@ c None",
"# c black",
/* pixels */
"@@@@@@@@@@@@@@@@@@@@@@@@@@@@@@@@",
"@@@@@@@@@@@@@@@@@@@@@@@@@@@@@@@@",
"@@@@@@@@@@@@@@    @@@@@@@@@@@@@@",
"@@@@@@@@@@@@@@    @@@@@@@@@@@@@@",
"@@@@@@@@@@@@  oo..  @@@@@@@@@@@@",
"@@@@@@@@@@@@  oo..  @@@@@@@@@@@@",
"@@@@@@@@@@@@  oo..  @@@@@@@@@@@@",
"@@@@@@@@@@@@  oo+.  @@@@@@@@@@@@",
"@@@@@@@@@@  XXooXX..  @@@@@@@@@@",
"@@@@@@@@@@  XXooXX..  @@@@@@@@@@",
"@@@@@@@@@@  XXooXX..  @@@@@@@@@@",
"@@@@@@@@@@  XXooXX+.  @@@@@@@@@@",
"@@@@@@@@  OOooooooXX..  @@@@@@@@",
"@@@@@@@@  OOooooooXX..  @@@@@@@@",
"@@@@@@@@  ooooooooXX..  @@@@@@@@",
"@@@@@@@@  ooooooooXX++  @@@@@@@@",
"@@@@@@  ooooOOXXooXXXX..  @@@@@@",
"@@@@@@  ooooOOXXooXXXX..  @@@@@@",
"@@@@@@  ooooOOXXooooXX..  @@@@@@",
"@@@@@@  ooooOOXXooooXX+.  @@@@@@",
"@@@@  ooOOooooooooooXXXX..  @@@@",
"@@@@  ooOOooooooooooXXXX..  @@@@",
"@@@@  ooOOooooooooooooXX..  @@@@",
"@@@@  ooOOooooooooooooXX+.  @@@@",
"@@  OOOOOOOOooooOOooXXoooo..  @@",
"@@  OOOOOOOOooooOOooXXoooo..  @@",
"@@                            @@",
"@@                            @@",
"@@@@@@@@@@@@@@@@@@@@@@@@@@@@@@@@",
"@@@@@@@@@@@@@@@@@@@@@@@@@@@@@@@@",
"@@@@@@@@@@@@@@@@@@@@@@@@@@@@@@@@",
"@@@@@@@@@@@@@@@@@@@@@@@@@@@@@@@@"
};
