/* XPM */
static char *_06ca39d665849dfcd1ba83f4c6b4ebctMeG0L2VFcMJojbB_6[] = {
/* columns rows colors chars-per-pixel */
"32 32 8 1 ",
"  c black",
". c #BD8C21",
"X c white",
"o c #FFFF42",
"O c #FFD639",
"+ c #C39634",
"@ c None",
"# c black",
/* pixels */
"@@@@@@@@@@@@@@  @@@@@@@@@@@@@@@@",
"@@@@@@@@@@@@@@  @@@@@@@@@@@@@@@@",
"@@@@@@@@@@@@  ..  @@@@@@@@@@@@@@",
"@@@@@@@@@@@@  ..  @@@@@@@@@@@@@@",
"@@@@@@@@@@@@  ..  @@@@@@@@@@@@@@",
"@@@@@@@@@@@@  ..  @@@@@@@@@@@@@@",
"@@@@XX@@@@  ...+OO  @@@@@@@@@@@@",
"@@@@XX@@@@  ...+OO  @@@@@@@@@@@@",
"@@XXXXXX@@  ...+OO  @@@@@@@@@@@@",
"@@XXXXXX@@  ..++OO  @@@@@@@@@@@@",
"@@@@XX@@@@  .+XXooOO  @@@@@@@@@@",
"@@@@XX@@@@  .+XXooOO  @@@@@@@@@@",
"@@@@@@@@  ...+XXooOO  XX@@@@@@@@",
"@@@@@@@@  ...+XXooOO  XX@@@@@@@@",
"@@@@@@@@  ...+ooXXooOOXX@@@@@@@@",
"@@@@@@@@  ..++ooXXooOOXX@@@@@@@@",
"@@@@@@@@  .+XXooOOooXXXXXX@@@@@@",
"@@@@@@@@  .+XXooOOooXXXXXX@@@@@@",
"@@@@@@  ...+XXooOOOOooXX  @@@@@@",
"@@@@@@  ...+XXooOOOOooXX  @@@@@@",
"@@@@@@  ....ooooooOOooXX  @@@@@@",
"@@@@@@  ..++ooooooOOooXX  @@@@@@",
"@@@@@@  .+XXooOOOOooOO    @@@@@@",
"@@@@@@  .+XXooOOOOooOO    @@@@@@",
"@@@@  ...+XXOOOO      @@@@@@@@@@",
"@@@@  ...+XXOOOO      @@@@@@@@@@",
"@@@@  ...+OO    @@@@@@@@@@@@@@@@",
"@@@@  ...+OO    @@@@@@@@@@@@@@@@",
"@@@@        @@@@@@@@@@@@@@@@@@@@",
"@@@@        @@@@@@@@@@@@@@@@@@@@",
"@@@@@@@@@@@@@@@@@@@@@@@@@@@@@@@@",
"@@@@@@@@@@@@@@@@@@@@@@@@@@@@@@@@"
};
