/* XPM */
static char *_06ca39d665849dfcd1ba83f4c6b4ebctMeG0L2VFcMJojbB_3[] = {
/* columns rows colors chars-per-pixel */
"32 32 8 1 ",
"  c black",
". c #BD8C21",
"X c white",
"o c #FFFF42",
"O c #FFD639",
"+ c #C39634",
"@ c None",
"# c black",
/* pixels */
"@@@@@@@@@@@@@@  @@XX@@@@@@@@@@@@",
"@@@@@@@@@@@@@@  @@XX@@@@@@@@@@@@",
"@@@@@@@@@@@@  ..  XX@@@@@@@@@@@@",
"@@@@@@@@@@@@  ..  XX@@@@@@@@@@@@",
"@@@@@@@@@@@@  .+XXXXXX@@@@@@@@@@",
"@@@@@@@@@@@@  .+XXXXXX@@@@@@@@@@",
"@@@@@@@@@@@@  ..  XX@@@@@@@@@@@@",
"@@@@@@@@@@@@  ..  XX@@@@@@@@@@@@",
"@@@@@@@@@@  OO...+XX@@@@@@@@@@@@",
"@@@@@@@@@@  OO...+XX@@@@@@@@@@@@",
"@@@@@@@@@@  OO....  @@@@@@@@@@@@",
"@@@@@@@@@@  OO....  @@@@@@@@@@@@",
"@@@@@@@@@@  OO....  @@@@@@@@@@@@",
"@@@@@@@@@@  OO....  @@@@@@@@@@@@",
"@@@@@@@@@@  XX....  @@@@@@@@@@@@",
"@@@@@@@@@@  XX....  @@@@@@@@@@@@",
"@@@@@@@@  ooXX....  @@XX@@@@@@@@",
"@@@@@@@@  ooXX++..  @@XX@@@@@@@@",
"@@@@@@@@  XXXXXX....  @@@@@@@@@@",
"@@@@@@@@  XXXXXX....  @@@@@@@@@@",
"@@@@@@@@  OOXXOO....  @@@@@@@@@@",
"@@@@@@@@  OOXXOO....  @@@@@@@@@@",
"@@@@XX@@@@  XXOO....  @@@@@@@@@@",
"@@@@XX@@@@  XXOO....  @@@@@@@@@@",
"@@XXXXXX@@@@    ....  @@@@@@@@@@",
"@@XXXXXX@@@@    ....  @@@@@@@@@@",
"@@@@XX@@@@@@@@@@      @@@@@@@@@@",
"@@@@XX@@@@@@@@@@      @@@@@@@@@@",
"@@@@@@@@@@@@@@@@@@@@@@@@@@@@@@@@",
"@@@@@@@@@@@@@@@@@@@@@@@@@@@@@@@@",
"@@@@@@@@@@@@@@@@@@@@@@@@@@@@@@@@",
"@@@@@@@@@@@@@@@@@@@@@@@@@@@@@@@@"
};
