/* XPM */
static char *_460ad1b2ea74cd99627dca20a00c9fbSCWzKuwUxcVTlqkv[] = {
/* columns rows colors chars-per-pixel */
"32 32 64 1 ",
"  c #283028",
". c #283128",
"X c #293329",
"o c #283629",
"O c #217136",
"+ c #237236",
"@ c #267737",
"# c #277738",
"$ c #287738",
"% c #29763B",
"& c #277838",
"* c #297938",
"= c #2A7A3A",
"- c #2B7B3A",
"; c #2C7A3A",
": c #2C7C3A",
"> c #2D7D3A",
", c #2B793C",
"< c #2D7C3C",
"1 c #2E7C3C",
"2 c #2E7D3D",
"3 c #327D41",
"4 c #327D43",
"5 c #6F5840",
"6 c #705840",
"7 c #757748",
"8 c #7A7749",
"9 c #757949",
"0 c #797F4C",
"q c #877A4D",
"w c #837C4C",
"e c #907B4F",
"r c #977850",
"t c #987850",
"y c #31813C",
"u c #32813F",
"i c #34843E",
"p c #37873F",
"a c #358041",
"s c #348240",
"d c #378444",
"f c #398343",
"g c #3A8444",
"h c #398644",
"j c #3C8545",
"k c #3F8F43",
"l c #408848",
"z c #408A4C",
"x c #409044",
"c c #419145",
"v c #459447",
"b c #469647",
"n c #489848",
"m c #4B9B4A",
"M c #4C9B4B",
"N c #4C9C4A",
"B c #438951",
"V c #498C57",
"C c #7B804C",
"Z c #7F854E",
"A c #5EA75C",
"S c #61A85F",
"D c #B89868",
"F c #B8B088",
/* pixels */
"lg=;jj;>kmmbnnnnnnnnnmmc>=fj1=fl",
"faV4u.                     f%=4j",
"<B#4  tttttttttttttttttttt  %$;<",
"@=a.6ttDDDDDttDDDDttDDDDDtt6 u==",
"&a.6tDDDDDDtDDDDDDDDtDDDDDDt6 u=",
",o6tDtDDDDtDDDttttDDDtDDDDtDt6 ;",
"o5tDDtDDDtDDDtDDDDtDDDtDDDtDDt6 ",
".rDDDtFFFtFFFtFFFFtFFFtFFFtDDDt ",
".tDDFtttt66ttt6666ttt66ttttFDDt ",
".rDFt6tttt66tttttttt66tttt6tFDt ",
".tFttt6tt66666666666666tt6tttFt ",
".tDtttt6                6ttttDt ",
".6ttttt                  ttttt6 ",
".66ttt6                  6ttt66 ",
" 666tt6                  6tt666 ",
" 6t6666                  6666t6 ",
" 6tt666                  666tt6 ",
" 6tttt6                  6tttt6 ",
" 66ttt6                  6ttt66 ",
"6 66tt6                  6tt66 6",
"6  6666                  6666  6",
"6   666                  666   6",
"  t tt6                  6tt t  ",
" 6t tt6                  6tt t6 ",
" 6t tt6  6 6 6 6 6 6 6 6 6tt t6 ",
" 6t 666 6666666666666666 666 t6 ",
" 6t 666 6655666666666666 666 t6 ",
" 6 ttt6 teew870ZZC98qett 6ttt 6 ",
" 666666 Acu=O>cNNc>+%hcS 666666 ",
" 666666 Nvu=-icNNvp>*ycN.666666 ",
" 666656.nNcxkcnnnvccxcNv.666666 ",
"l      hcNnnnnnnnnnnnnMcz.     l"
};
