/* XPM */
static char *e2de8e28cb10440ce5119603687180d7gaJB2xn2jENzBchp[] = {
/* columns rows colors chars-per-pixel */
"32 32 69 1 ",
"  c #283028",
". c #283228",
"X c #283629",
"o c #2A352A",
"O c #2A362A",
"+ c #273C2A",
"@ c #2A3D2B",
"# c #2B3C2C",
"$ c #2A3F2C",
"% c #28412C",
"& c #2D452E",
"* c #2E452F",
"= c #2D482F",
"- c #314A30",
"; c #257636",
": c #237238",
"> c #277738",
", c #287738",
"< c #277838",
"1 c #287938",
"2 c #2A7839",
"3 c #2C7B3B",
"4 c #2E7F3B",
"5 c #2B783C",
"6 c #2C783D",
"7 c #2C7A3C",
"8 c #2E7C3C",
"9 c #2E7D3D",
"0 c #2F7C40",
"q c #307C40",
"w c #705840",
"e c #987850",
"r c #30803C",
"t c #31813C",
"y c #34833F",
"u c #34843E",
"i c #37873F",
"p c #368142",
"a c #388343",
"s c #3A8345",
"d c #3A8444",
"f c #3C8545",
"g c #3F8F43",
"h c #3F8F44",
"j c #3E8A49",
"k c #408F45",
"l c #408848",
"z c #448A4C",
"x c #419145",
"c c #429245",
"v c #439345",
"b c #479747",
"n c #46934B",
"m c #469649",
"M c #4A974C",
"N c #489848",
"B c #499948",
"V c #4B9B4A",
"C c #4C9B4B",
"Z c #4C9C4A",
"A c #4F9D4E",
"S c #509F4C",
"D c #509E4F",
"F c #468B50",
"G c #468E51",
"H c #478E53",
"J c #61A85F",
"K c #B89868",
"L c #B8B088",
/* pixels */
"ld33sf33hZZbmNNbNNNmNNZb4<sd93al",
"Fp71F     ..               s3,9s",
"37>5X eeeeeeeeeeeeeeeeeeee  7,99",
";1r$weeKKKKKeeKKKKeeKKKKKeew p2,",
"<p weKKKKKKeKKKKKKKKeKKKKKKew l1",
"0 weKeKKKKeKKKeeeeKKKeKKKKeKew 7",
" weKKeKKKeKKKeKKKKeKKKeKKKeKKew ",
" eKKKeLLLeLLLeLLLLeLLLeLLLeKKKe ",
" eKKLeeeewweeewwwweeewweeeeLKKe ",
" eKLeweeeewweeeeeeeewweeeeweLKe ",
" eLeeeweewwwwwwwwwwwwwweeweeeLe ",
" eKeeeew                weeeeKe ",
" weeeee                  eeeeew ",
" wweeew   wwwwwwwwwwww   weeeww ",
" wwweew  weweeewweeewew  weewww ",
" wewwww weeweeewweeeweew wwwwew ",
" weewww weewe  ww  eweew wwweew ",
" weeeew weewe      eweew weeeew ",
" wweeew weeweK    Keweew weeeww ",
"w wweew weeweeK  Keeweew weeww w",
"w  wwww weeweeeKKeeeweew wwww  w",
"w   www weeweeewwe    ww www   w",
"  e eew  eeweeewwew  ew  wee e  ",
" we eew  eeweeewwe    w  wee ew ",
" we eew  eeweeewwe KK w  wee ew ",
" we www  eeweeewwe    w  www ew ",
" we www  wwwwwwwwwwwwww  www ew ",
" w eeew   o$%%---*@+@#X  weee w ",
" wwwwww DBjq:8kCSm97,ynJXwwwwww ",
" wwwwwwXDv914uxCCxi43rvC*wwwwww ",
" wwwwww mNxgkxbbBbvkxxNm*wwwwww ",
"z    X HgSVbbCmBBBBNNNCmGX     l"
};
