/* XPM */
static char *_dc98876cefe4b348d95bfa17338e927pWtKmjnXRzqJCSod[] = {
/* columns rows colors chars-per-pixel */
"32 32 220 2 ",
"   c #050904",
".  c #120C04",
"X  c #0E1602",
"o  c #161203",
"O  c #020715",
"+  c #1F0B1F",
"@  c #0B1819",
"#  c #181A19",
"$  c #2B1E0E",
"%  c #231D17",
"&  c #192811",
"*  c #173313",
"=  c #232115",
"-  c #21251B",
";  c #322A17",
":  c #323E19",
">  c #0B1A25",
",  c #151B2F",
"<  c #280E23",
"1  c #251A26",
"2  c #192226",
"3  c #152D35",
"4  c #272629",
"5  c #2B2A2A",
"6  c #352B27",
"7  c #2D352A",
"8  c #35372A",
"9  c #282B36",
"0  c #343836",
"q  c #451703",
"w  c #4F2B08",
"e  c #7A3B0A",
"r  c #541B30",
"t  c #442C28",
"y  c #55332C",
"u  c #4A3631",
"i  c #473935",
"p  c #673E27",
"a  c #78353F",
"s  c #1A4C1C",
"d  c #1F511F",
"f  c #24581D",
"g  c #1D4C2D",
"h  c #2C452D",
"j  c #255722",
"k  c #375829",
"l  c #2D4A31",
"z  c #324A38",
"x  c #345435",
"c  c #1E612D",
"v  c #296729",
"b  c #357C2E",
"n  c #266E34",
"m  c #366437",
"M  c #3B6A3B",
"N  c #257436",
"B  c #297436",
"V  c #267638",
"C  c #2A7738",
"Z  c #2C7B3A",
"A  c #397638",
"S  c #327C3D",
"D  c #397E3B",
"F  c #494C33",
"G  c #734C32",
"H  c #4E7032",
"J  c #487139",
"K  c #0D1F46",
"L  c #042F49",
"P  c #173145",
"I  c #193555",
"U  c #352B4B",
"Y  c #273344",
"T  c #3B364A",
"R  c #373A59",
"E  c #283B67",
"W  c #483B49",
"Q  c #493B57",
"!  c #553255",
"~  c #375743",
"^  c #3A4457",
"/  c #357E42",
"(  c #36704B",
")  c #2E4164",
"_  c #2C4A7D",
"`  c #384976",
"'  c #484E4A",
"]  c #4A4854",
"[  c #514C56",
"{  c #635447",
"}  c #635D5A",
"|  c #407643",
" . c #5D6758",
".. c #6B6D53",
"X. c #68615D",
"o. c #47466A",
"O. c #5D496E",
"+. c #5B686E",
"@. c #686263",
"#. c #7E736C",
"$. c #7A6C74",
"%. c #6B7478",
"&. c #8D3700",
"*. c #944602",
"=. c #905A1F",
"-. c #AD500F",
";. c #8A5526",
":. c #9A5330",
">. c #A0673B",
",. c #C27335",
"<. c #984448",
"1. c #B15451",
"2. c #906C55",
"3. c #877164",
"4. c #D05957",
"5. c #D05F61",
"6. c #FC6E6C",
"7. c #2F803B",
"8. c #33833D",
"9. c #3B8438",
"0. c #3B843C",
"q. c #3D913C",
"w. c #43873C",
"e. c #41843E",
"r. c #44953D",
"t. c #368441",
"y. c #3C8543",
"u. c #3C8B42",
"i. c #3E9145",
"p. c #438443",
"a. c #438C43",
"s. c #4C8A43",
"d. c #449346",
"f. c #499446",
"g. c #479A47",
"h. c #479649",
"j. c #499649",
"k. c #4A9A49",
"l. c #509A4A",
"z. c #458E52",
"x. c #4C9753",
"c. c #519B52",
"v. c #47A24A",
"b. c #4CA44C",
"n. c #4DAA4E",
"m. c #51A14C",
"M. c #4FB14F",
"N. c #56A256",
"B. c #58A858",
"V. c #52B751",
"C. c #65A568",
"Z. c #57CD57",
"A. c #BA8057",
"S. c #FF9F54",
"D. c #FFB15D",
"F. c #D6987B",
"G. c #F29D63",
"H. c #FEB56F",
"J. c #375386",
"K. c #2E4F92",
"L. c #3558AB",
"P. c #3D61B4",
"I. c #4D508B",
"U. c #6B538E",
"Y. c #456B9A",
"T. c #435BA3",
"R. c #455CAA",
"E. c #675BA5",
"W. c #4368AA",
"Q. c #4663B4",
"!. c #5466BE",
"~. c #7A64AB",
"^. c #7377AA",
"/. c #726DB9",
"(. c #4E6AC8",
"). c #486BCD",
"_. c #4573D8",
"`. c #5277D9",
"'. c #6874D6",
"]. c #7779DB",
"[. c #826FB2",
"{. c #937BCD",
"}. c #8675D4",
"|. c #9D7DDC",
" X c #A479E6",
".X c #6683ED",
"XX c #6485F2",
"oX c #7D88F5",
"OX c #8E9290",
"+X c #A8AF8C",
"@X c #AAAEA8",
"#X c #B4A9AD",
"$X c #C3BEB4",
"%X c #FFDEBE",
"&X c #BAA7DA",
"*X c #9E8AEC",
"=X c #9698FF",
"-X c #B08FF5",
";X c #AC97FF",
":X c #B3A9FF",
">X c #C6BEC9",
",X c #C092FF",
"<X c #C7A1FF",
"1X c #CEACFF",
"2X c #D0A9FF",
"3X c #C8B6FF",
"4X c #D6B6FF",
"5X c #CBCCC3",
"6X c #D8D1DC",
"7X c #E3DAD5",
"8X c #F6EFD8",
"9X c #DCC7F6",
"0X c #E6D0F4",
"qX c #EAD8FF",
"wX c #F7F7EA",
"eX c #E3EFFF",
"rX c #F4E9FF",
"tX c #F9E9FF",
"yX c #FFF2FF",
"uX c #FFFFFE",
/* pixels */
"J / V S p./ Z Z q.f.h.g.h.h.f.f.f.f.f.f.h.h.g.f.q.Z Z y./ Z Z / ",
"/ S B C / t.t.u.w.k J 8.t.q.d.f.s.f.d.u.0.t.d.h.d.t.D / / B B / ",
"C B V N N S u.H ^ K.^ F n Z a.k.s.s.0.Z N N 8.h.l.k.u.Z B B B N ",
"B Z 8.8.S 0.H : E L.) = : n 8.k.m.a.7.n N Z u.f.k.l.d.0.S 8.S C ",
"C 8.d.g.d.~ ) 2 8 { 8 , E z 0.k.m.j.8.N Z d.k.g.k.j.j.f.h.k.a.8.",
"V 0.g.m.| W._.R #XuX$X^ ).Q.x k.l.k.u.D p.j.l.k.h.a.p.g.k.f.d.S ",
"V 8.g.M Y..X^ U.-X4XuXOXO.:XW.M k.k.g.f.p.f.f.f.j.h.d.a.f.p.w.S ",
"8.i.M - W.;XoXP U.tX+XU 9XeXP.7 p.k.k.k.a.u.u.u.d.h.g.f.d.w.d.8.",
"d.f.e.= R..XXXP U.yX+X, =X:XQ.& 0.k.k.g.8.V N N 8.h.k.k.k.k.h.h.",
"b.r.z T.) 9 3 U.4XwXwXOX, T ^ T.~ r.b.h.i.7.N N 8.d.k.i.u.u.u.h.",
"k.b U ;XQ . o R.3X9X9X!..   W ;XU X * B.b.h.t.N 8.k.h.t.B B 8.d.",
"k.D 9 ].Q % . > (.oX!.> . # T '.T #XF...B.k.u.8.0.k.i.Z N N u.i.",
"k.e.Y _.Y o OXF O J.O F OXo 9 _.Y %...$ a.k.k.k.j.k.a.8.B 0.0.D ",
"k.w.< ` `   wXuX0   0 uXwXO J.` 0 G G 6 * h.x.C.B.u.u.u.q.j.v v ",
"g.f.k . (./.3.@X3.q 3.@X3./.`.X ; G.8XX.s h.c.k.c.D d.d.k.h.0.0.",
"f.k.k.k ` =X~.O ;.D.;.  ~.=X` # . G.%X[ A a.D q.a.N.k.j.j.j.q.r.",
"h.f.b.V.* K =XI.=.H.=.I.=XP   9 %.2.-.q / d.a.D a.h.k.k.k.g.N.N.",
"k.k.j.0.[ ! K.3 q &.w I _ W T i 8X] 2.G n g.k.k.k.h.d.d.d.g.k.g.",
"k.k.r.= {.-XU.'  .@.' # $.<X}.6 >.u 7X3.v n.k.k.k.k.i.8.8.d.k.k.",
"k.g.9.- L.9 U.tXuXuXOXQ <X=XQ.& # - 5.{ c r.a.D A u.0.Z z.x.h.h.",
"k.d.v 5 L.9 X [.4X^.. R XX_.T.5 & 4 6 j l 4 9 7 7 7 8 8 0 0 ( j.",
"k.0.0 *XO.6 = 7 U p e ` L.& o.{.i 1.t @ [. X&X7X6X6X6X6X6X>X] C.",
"v.w.9 '.*X-X] w *.,.H.2.O W {.W 4.6.t E.-XqXuXrX<X1X3X1X1X4X0X..",
"k.e.9 ).I.Q Q.^ *.S.A.#.5X#Xo.L.! 4.y 4  X2XqXuXrXrXrXrXyXtX%.* ",
"8.d./ R @   Y Q.) :.&.+.uX7X  ) ( u < f ] U Q } X.} X. .} } & s ",
"N u.g.= <.1.$ L I ; ; ' OX@.# % d.Z m b.A f j d d d d d j d D 0.",
"V d.u.# a 6.5.:.y > 2 #   . 1 1 p.V.n.h.k.n.n.b.b.n.b.b.n.n.g.i.",
"C i.g.M > r <.1.u 2 5 5 2 + 4 M f.k.d.u.8.d.k.h.h.h.h.h.d.k.i.7.",
"V Z u.n.( g @ O + 1 < + 4 x M n.k.g.t.V N 7.u.g.k.b.d.8.S 8.8.Z ",
"Z V V B k.Z.M h x x x h M M.b.k.b.f.u.Z N C 8.g.l.h.u.Z N N N Z ",
"t.Z V Z / / i.v.v.b.n.n.b.f.h.k.g.g.d.u.t.t.d.h.d.u.t./ / V N 8.",
"y.t.V Z y.t.Z 8.a.k.h.g.h.h.f.j.g.h.h.h.d.g.k.h.i.t.u.a.a.u.u.u."
};
