/* XPM */
static char *_76d1bb5a0fb43df9f11a725603d08d640pLptf90uMpZr8O[] = {
/* columns rows colors chars-per-pixel */
"32 32 100 2 ",
"   c #1F6F33",
".  c #247436",
"X  c #297937",
"o  c #267638",
"O  c #277838",
"+  c #2B7B3A",
"@  c #337E40",
"#  c #2F803B",
"$  c #33833D",
"%  c #3F833E",
"&  c #38883F",
"*  c #40833E",
"=  c #368440",
"-  c #3D8644",
";  c #3C8C42",
":  c #478441",
">  c #4B8741",
",  c #438B42",
"<  c #4C8C43",
"1  c #558D44",
"2  c #449446",
"3  c #4A9747",
"4  c #499847",
"5  c #479648",
"6  c #4B9749",
"7  c #4B9A49",
"8  c #519246",
"9  c #5C9246",
"0  c #569749",
"q  c #539C4B",
"w  c #5C9D4C",
"e  c #639447",
"r  c #639548",
"t  c #6A9749",
"y  c #669A4B",
"u  c #6B9B4B",
"i  c #729A4C",
"p  c #53A14D",
"a  c #59A14D",
"s  c #62A24E",
"d  c #6EA34F",
"f  c #74A44F",
"g  c #6BA650",
"h  c #6FA951",
"j  c #7AA651",
"k  c #71AA53",
"l  c #74AA53",
"z  c #7CAD54",
"x  c #87A753",
"c  c #89A652",
"v  c #88AF56",
"b  c #95AF57",
"n  c #84B156",
"m  c #8CB358",
"M  c #8DB358",
"N  c #8AB458",
"B  c #95B258",
"V  c #90B559",
"C  c #94B659",
"Z  c #94B75A",
"A  c #99B158",
"S  c #9BB459",
"D  c #9DBC5D",
"F  c #A3B45A",
"G  c #A0B85B",
"H  c #A7B85C",
"J  c #AFBA5D",
"K  c #ACBF5F",
"L  c #B0BD5F",
"P  c #ADC05F",
"I  c #AFC160",
"U  c #B6C060",
"Y  c #B5C362",
"T  c #BBC262",
"R  c #BBC663",
"E  c #BFC764",
"W  c #C3C865",
"Q  c #C3C965",
"!  c #C4C864",
"~  c #C4C865",
"^  c #CBC966",
"/  c #C9CA66",
"(  c #CBCB66",
")  c #CCCB66",
"_  c #D0CD68",
"`  c #D0CE68",
"'  c #D2CE68",
"]  c #D7D069",
"[  c #D8D069",
"{  c #D9D06A",
"}  c #D8D16A",
"|  c #DED36B",
" . c #E0D36B",
".. c #E0D46C",
"X. c #E2D46C",
"o. c #E6D66D",
"O. c #E7D66D",
"+. c #E8D76D",
"@. c #EAD76E",
"#. c #EBD86E",
/* pixels */
"- = O + , - + @ ; 7 7 4 ; 7 7 7 7 p g n K (  .+.+.#.#.#.#.#.#.#.",
"@ + o O @ @ = - 4 7 ; ; ; ; ; 7 p p a f b T { +.#.#.#.#.#.#.#.#.",
"+ O O o . # ; 7 7 ; # O . # ; 7 q q 8 9 j F ( | +.#.#.#.#.#.#.#.",
"o + $ $ # ; 5 p p ; ; #   . = 7 p 7 , : e b R } +.+.#.#.#.#.#.#.",
"O & 2 7 2 5 5 5 4 4 7 ; + O = 7 p 7 % * r N I ` X.+.#.#.#.#.#.#.",
"O = 7 p 7 7 5 7 4 p p 7 ; & ; 7 7 7 , , w n P Q { +.#.#.#.#.#.#.",
"O $ 5 7 7 5 5 7 7 7 7 7 ; 4 5 4 7 7 7 q a l Z Y ` X.#.#.#.#.#.#.",
"$ ; 4 7 7 7 5 5 ; ; ; ; 7 7 7 7 7 7 7 q q r j G ! X.+.#.#.#.#.#.",
"2 4 7 7 7 7 7 5 & O O + ; p 7 7 7 7 7 7 3 * 9 c U { O.+.+.#.#.#.",
"7 5 ; ; ; 5 7 ; +   O # ; 4 5 ; ; ; 5 7 2 , > i H ` O.+.+.#.#.#.",
"7 ; + O + & 4 ; O O ; 2 7 4 = O o X ; 5 q 8 8 t A ( | O.#.#.#.#.",
"5 ; #     # 4 2 $ ; ; 7 7 5 ; # o + ; 7 p a q y B ~ | O.#.#.#.#.",
"5 4 5 # . # 5 4 2 2 5 7 7 7 5 ; ; 2 5 7 7 q q d Z E { O.#.#.#.#.",
"7 7 7 ; # # ; 7 7 7 7 7 5 ; 5 7 p 7 5 ; 2 7 w k Z R { O.#.#.#.#.",
"5 7 5 5 2 5 4 4 7 7 7 5 & # ; 7 p 7 ; + = 7 a h V T { +.#.#.#.#.",
"5 7 7 7 7 7 4 4 5 7 p ; + O & 7 p 7 + . = 6 p g N U { +.#.#.#.#.",
"5 4 4 7 p 7 7 4 7 7 p ; + O ; 7 p 5 # . + 7 a g m Y } +.#.#.#.#.",
"4 7 7 4 ; ; 5 4 7 7 7 2 $ # ; 7 7 5 ; # ; 4 a h M R ' O.#.#.#.#.",
"7 7 7 ; & & 5 7 7 7 7 5 ; 2 5 7 7 7 2 ; 2 7 w h Z R { O.#.#.#.#.",
"4 5 2 # O O ; 7 ; 2 5 7 p 7 5 ; ; 2 5 7 7 q q d Z ! { O.#.#.#.#.",
"4 ; #     # 5 5 ; $ ; p p 4 ; + + # ; 5 p p q y Z ! | +.#.#.#.#.",
"7 ; + O O ; 5 ; + O = 5 7 4 $ O . + ; 7 7 6 1 e A ~ X.#.#.#.#.#.",
"7 5 ; ; ; 7 p ; +   O # 2 4 5 ; ; ; 5 5 2 - * i H ' O.+.#.#.#.#.",
"; 5 7 7 7 7 7 ; $ O O # ; 7 7 5 5 5 p 5 ; , 1 x L ' O.#.#.#.#.#.",
"& ; 4 7 7 4 4 ; 2 ; & ; 4 7 7 4 4 7 7 p 6 0 g S ( | +.#.#.#.#.#.",
"O = 7 7 7 4 7 7 7 7 7 7 5 4 5 7 5 7 4 6 q g m P _ +.+.#.#.#.#.#.",
"O & 7 p p 7 7 7 7 7 p 7 & $ ; 7 p 4 , % 0 n D E { O.+.#.#.#.#.#.",
"O & ; 7 ; ; 7 7 4 7 7 ; + o & 7 p 7 - * 9 v P (  .+.+.#.#.#.#.#.",
". O = = = = 7 7 7 5 ; X   o ; 7 p q < > t b R { +.#.#.#.#.#.#.#.",
"O o . o O = ; 7 7 ; $ o . + ; 7 p a y u c L `  .+.#.#.#.#.#.#.#.",
"= = . O = = = ; 5 5 ; & & ; 5 q a g z B L ^ | +.#.#.#.#.#.#.#.#.",
"= = o @ - = # # 2 7 4 5 5 5 7 q s z V I ^ | X.#.#.#.#.#.#.#.#.#."
};
