/* XPM */
static char *_cbe0fe7f03647968ff088ac84ccdf66stt0gmYkhAhWw2On[] = {
/* columns rows colors chars-per-pixel */
"32 32 88 1 ",
"  c #1F6F33",
". c #247436",
"X c #287737",
"o c #297937",
"O c #267638",
"+ c #277838",
"@ c #2C7B3A",
"# c #317C3E",
"$ c #397F3B",
"% c #357F41",
"& c #2F803B",
"* c #33833D",
"= c #3E843E",
"- c #3A883F",
"; c #368541",
": c #3C8545",
"> c #3C8B42",
", c #468641",
"< c #4B8741",
"1 c #428D42",
"2 c #4D8E44",
"3 c #538C44",
"4 c #449446",
"5 c #4B9546",
"6 c #489847",
"7 c #479748",
"8 c #4C9749",
"9 c #4B9A49",
"0 c #569347",
"q c #549C4A",
"w c #5A9F4C",
"e c #649548",
"r c #6A9749",
"t c #639B4C",
"y c #689A4B",
"u c #739C4C",
"i c #51A14D",
"p c #63A34E",
"a c #6BA24F",
"s c #79A04E",
"d c #67A650",
"f c #6BA651",
"g c #6FA853",
"h c #74AA53",
"j c #7DAB54",
"k c #81A652",
"l c #85AF56",
"z c #8BAB54",
"x c #92AC55",
"c c #85B157",
"v c #8EB458",
"b c #93B659",
"n c #9BB65A",
"m c #96B85B",
"M c #A4B65B",
"N c #A2BA5C",
"B c #A9BB5D",
"V c #ABBC5E",
"C c #ADBD5F",
"Z c #B2C161",
"A c #B7C161",
"S c #B6C462",
"D c #B8C362",
"F c #BCC362",
"G c #BAC562",
"H c #BDC463",
"J c #BFC764",
"K c #C2C764",
"L c #C3C965",
"P c #C4C865",
"I c #C4C965",
"U c #CAC865",
"Y c #CBCB66",
"T c #CCCB66",
"R c #CBCC66",
"E c #CCCC67",
"W c #D0CC67",
"Q c #D2CE68",
"! c #D8CF69",
"~ c #D7D16A",
"^ c #DAD26A",
"/ c #DED36B",
"( c #E0D46C",
") c #E1D46C",
"_ c #E6D66D",
"` c #E7D76D",
"' c #EAD76E",
"] c #EBD86E",
/* pixels */
"]]]]]]]]]]]]]]]]]]]]]]]]]]]]]]]]",
"]]]]]]]]]]]]]]]]]]]]]]]]]]]]]]]]",
"]]]]]]]]]]]]]]]]]]]]]]]']]]]]]]]",
"]]]]]]]]]]]']]]]`]]]]]]']]]]]]]]",
"]]]]]]]]]'']````````'''']]]]]]]]",
"]]]]]]]``)//!!!^~!^^/)```']]]]]]",
"]]']'`)/^QRLFAFASAGJIEQ^/)``]]]]",
"]]'`)^QISVnnbbbvvbbmnnBDKQ^))']]",
"``)^WLSNzsyyahgddghhyyuknCJE^)''",
"/^YHCNbje<,2qqq555qwq3<<ylnVFE/`",
"YFMxssht,=18i8>@X@>qq8>$2fhkxVU^",
"Cnke30wq=-4i96>@X@>8ii4*1qq3rzBY",
"cjh0==566669997>14789974682=3unA",
"fdi0==688676>46999744799964=2fcm",
"iwq666699994;*>999;@-49989448wfh",
"q898996679i4@+-6i6&.*799779qiqip",
"9699i96999i>++>9i6&.&799779ii99i",
"6996>>6999i4*&>9i9>@>799976>>989",
"699>**499994>779i97>>99i99>&*4q9",
"764*.&>97>79i97>>>69ii>>79>+O>66",
"7>&  &77**>ii6>&@%>7ii>&>7>O O*>",
"9>&++>7>&.>997*+ @>9i>;.&47;+O&4",
"i>>>>7i>& .&49>>>>77>&. &494>>47",
"4799999>;+.&>9i979i7>@.@*7996994",
"*>79979>>>>>699969i94>->>999997;",
".>7i9699999966479674799996799i>&",
"+;9i999799i9>*>999>*>9i96779ii7*",
".>>94779999>++>9i6*+&496677779>&",
".@;;&>99i>>& .>9i6&  @>7994-&**o",
"+...+&>9i>*+ &>999>@.+-4i9>@.O.+",
";@.@%;;>94>;>>>999>>-*477;%%#O+#",
":;+@:;&*>997777947997499>@@::@o;"
};
