/* XPM */
static char *_ea51d55eb6f43638f5e25750fd44144ar8oxxfwx3Isy0ZX[] = {
/* columns rows colors chars-per-pixel */
"32 32 64 1 ",
"  c #1F6F33",
". c #207034",
"X c #207036",
"o c #237336",
"O c #247435",
"+ c #257436",
"@ c #257636",
"# c #287737",
"$ c #297937",
"% c #257538",
"& c #267638",
"* c #277838",
"= c #297939",
"- c #29783A",
"; c #2E7B3B",
": c #2B7C3A",
"> c #2C7C3B",
", c #2E7B3D",
"< c #307B3E",
"1 c #317D3D",
"2 c #337E40",
"3 c #367F41",
"4 c #2F803B",
"5 c #31813A",
"6 c #32823D",
"7 c #34813F",
"8 c #34843E",
"9 c #35853E",
"0 c #37873F",
"q c #38883F",
"w c #338040",
"e c #378141",
"r c #368640",
"t c #388244",
"y c #398344",
"u c #3F8747",
"i c #388841",
"p c #3A8A40",
"a c #3B8C41",
"s c #3C8C43",
"d c #3F8F43",
"f c #3F8F44",
"g c #409043",
"h c #409044",
"j c #419144",
"k c #429244",
"l c #439347",
"z c #429446",
"x c #459546",
"c c #459547",
"v c #479746",
"b c #489847",
"n c #469648",
"m c #479748",
"M c #47974A",
"N c #489848",
"B c #4B9B4A",
"V c #4B9B4B",
"C c #4D9D4A",
"Z c #4C9C4B",
"A c #4F9F4C",
"S c #50A04C",
"D c #50A04D",
"F c #51A14D",
/* pixels */
"uw-,ut=6knmnxnNNNbnnxmmVd$,h3,-3",
"e;@=226axnkiiszNVNkk9ikmzq6e2%&1",
"=*&@@6fVZk6@o>fCCn9=o@rxCmd,+@@-",
"@>961pNACxq= oqmFn6oo>abCFk9566#",
"&rnbxmNNbNCk=*qVFb6@1kNVNmNxxbh1",
"*pNACNNNmFFCqisNCbp9pCACNNNCFFx5",
"@9mCNNNNnNCbmxmbNNNxNNCNNNbbCCk1",
"6fmCVNNnddpdmCbmNCCCnspskNbVmCx9",
"xNNCNCCkr=@>dVVmmmFmq,@&pnCCmmNn",
"mxfsdxCs=o&6kmxdadmmd,oo,lnkfpkN",
"mp=@=9xd==rxCnr&@=amCz6@6xz9o&4k",
"md1o 6nx99kCAxp,&,dNFCa6inf=o&6l",
"Nmz6@=kbkknCZmnkfkmVCVxkNNp=@pxm",
"mCVk69xCCnNnkxxCVCxdzmmCCmd59lZZ",
"NNNxkkxbNNCnr6sZFbi,pxVCNNxkkmmm",
"NNNCCCmmNCFk=@pmFm4o1nCNNNmCCZNm",
"bbmVCANbmCZk,@pNFb4@6nmmnmnZZNNN",
"NbbxkzbmNCZk96sNFmi,pnZCNNkkxmNN",
"NCCd59xmCNZbkknCFNxskmmZCCs59xCC",
"NNk6o>kmkxnZZnnkkkbCCCnkmNf*&pxm",
"Na,@o,xx99kVZNp=&=aNFCa6pns*o@ef",
"Nd:@=pmd==pnCxr=@:sNCn6o6xn9@@,z",
"CNsqsmCp=o&6nNkkidxNs4o >xmnsakm",
"zNNNNCVk6=@,sCNCmVCma,@=pxCCmmbx",
"9kNCNNNnksikbCNNNNCCzkqdknNNCCnr",
"@9mCNNNNNVNNxxnNVbmzmNbbmmmmCCk4",
"&9nFCNNNNFFNq9kNAbpeaCSCmNNCAFz6",
"-9nNnNNNNNCh;@9NFb6@5lVbNNmmxmk,",
"@,966pnAZnp= @pNFb6o ;sxFZl6566$",
"=&&@&6kNZk6@@>sCAbp*o-9xZbs<*@@$",
"e>&&33wfxnsprszNVNksprhblq131@@1",
"uw*,up=>kNNnxnmNbNnxxbNbk=<ht,=t"
};
