/* XPM */
static char *result[] = {
/* columns rows colors chars-per-pixel */
"32 32 67 1 ",
"  c #247436",
". c #287737",
"X c #267638",
"o c #2C7B3A",
"O c #327D3C",
"+ c #367F41",
"@ c #33833D",
"# c #3B833E",
"$ c #42823D",
"% c #378641",
"& c #3B8444",
"* c #3B8B42",
"= c #428D43",
"- c #4D8C42",
"; c #558C43",
": c #449446",
"> c #4C9346",
", c #489847",
"< c #479748",
"1 c #499748",
"2 c #4B9B49",
"3 c #5B9146",
"4 c #529D4B",
"5 c #5C9B4B",
"6 c #639649",
"7 c #669B4B",
"8 c #6B9A4B",
"9 c #759E4E",
"0 c #51A14C",
"q c #5CA14D",
"w c #64A34F",
"e c #6AA24F",
"r c #72A24F",
"t c #7CA14F",
"y c #67A550",
"u c #6BA651",
"i c #6DA851",
"p c #7AA651",
"a c #75AD54",
"s c #7DAE55",
"d c #82AC54",
"f c #8BAD55",
"g c #86B056",
"h c #8CB257",
"j c #86B458",
"k c #8CB358",
"l c #94B559",
"z c #9CB65A",
"x c #9FBA5D",
"c c #A3B75B",
"v c #A2BC5D",
"b c #ABBD5E",
"n c #AEC060",
"m c #B3C261",
"M c #BAC462",
"N c #C0C764",
"B c #C5C965",
"V c #CBCB67",
"C c #CFCD68",
"Z c #D2CD67",
"A c #D2CE68",
"S c #D8CF69",
"D c #D7D069",
"F c #DBD26A",
"G c #E4D56C",
"H c #E9D76D",
"J c #EBD86E",
/* pixels */
"JJJJJJJJJJGVbhiw4211,<2,*@o&&XX&",
"JJJJJJJJGDNcde542,:*@@:<:@@%+  +",
"JJJJJJJGFBct;->42<#.  @<0,*@XX X",
"JJJJJJJGCmg6$O=20,@  @*,02:@@@@.",
"JJJJJJGFMvg5#O*202@X@*2,<<,,:2:o",
"JJJJJJGCmlaq=%*,22*@*002,,2220:@",
"JJJJJJFBvsw4<:<,2,::,2222,,,20:o",
"JJJJJGDMfw>:,22,2220:*%**<2,,2<@",
"JJJJJGCbp;OO*2222002@XXX*<0222<<",
"JJJJJGBz8OO@:<<****<*@  @:2****,",
"JJJJGFNl3$#,2<%. @*<0,%X@::%XX%*",
"JJJJJSMh5=:00<*.XX*,00*@%,*X X%*",
"JJJJGSmkw>1242::**2200**,,*.X*:,",
"JJJJGZbhi52:::<00,,**,0200*@@:20",
"JJJJGAnjy04:@@*202*%%:22:2*:*:2:",
"JJJJGAndw00:.X@20*@ @<22<:2002<2",
"JJJJGAngw00:@.@<0,% @*02<<22022,",
"JJJJGZnhi00*@@*222%@*2222<***2<2",
"JJJJGDmki02,**,000***2<<0<*@@<22",
"JJJJGAmle42200<***,222<*<2*@@@<<",
"JJJJGSNl7>>40:%@@@*<00*%*<*@  @*",
"JJJJGFBz7$=10:@X X*<0*@ @<*%  @*",
"JJJJJGZb9$O*,2,*%*<<*%  @*<****2",
"JJJJJGSMf3##*222*002*@  @<02222,",
"JJJJJJFBxp5>22,,,202****:22222:@",
"JJJJJJGZmlaq4,,,2<<<22222<,<20:@",
"JJJJJJGFBvju$#,,0<@@*002<2<200:@",
"JJJJJJGGCml8$##00<@@@*22<<<<<2@@",
"JJJJJJJGDBz8$@#,02@  @%200*@@@@@",
"JJJJJJJJGVcd3$,02<@@ X@*22*X@   ",
"JJJJJJJJGFNlr5022,*@*%****%+X  @",
"JJJJJJJJHGVngu022<22,202*@+%%@ @"
};
