/* XPM */
static char *result[] = {
/* columns rows colors chars-per-pixel */
"32 32 72 1 ",
"  c #1F6F33",
". c #247436",
"X c #287737",
"o c #267638",
"O c #277838",
"+ c #2C7B3A",
"@ c #337D3D",
"# c #357F41",
"$ c #2F803B",
"% c #33833D",
"& c #3C843E",
"* c #3C883F",
"= c #40843F",
"- c #368541",
"; c #3C8545",
": c #3C8C42",
"> c #468641",
", c #4A8641",
"< c #448C43",
"1 c #4C8C43",
"2 c #538D44",
"3 c #449446",
"4 c #4B9346",
"5 c #499847",
"6 c #479748",
"7 c #4B9A49",
"8 c #5C9147",
"9 c #5E9649",
"0 c #549C4A",
"q c #5B9D4C",
"w c #649649",
"e c #6C9C4C",
"r c #749D4C",
"t c #51A14C",
"y c #5FA14E",
"u c #64A34F",
"i c #6CA34F",
"p c #72A24E",
"a c #7DA24F",
"s c #66A651",
"d c #6BA651",
"f c #6FA953",
"g c #74A551",
"h c #72AA52",
"j c #79AB53",
"k c #80A351",
"l c #82AD55",
"z c #8AAB54",
"x c #93AE56",
"c c #84B157",
"v c #89B057",
"b c #8DB459",
"n c #9BB057",
"m c #94B65A",
"M c #9AB55A",
"N c #9CB85B",
"B c #A5BA5D",
"V c #ABBD5E",
"C c #B2BD5F",
"Z c #B1BF60",
"A c #B5C261",
"S c #BCC563",
"D c #BFC864",
"F c #C6C765",
"G c #C4C965",
"H c #CCCC67",
"J c #D1CD67",
"K c #D4CF69",
"L c #D6D069",
"P c #DCD26B",
"I c #E5D66D",
"U c #EBD86E",
/* pixels */
";-o#;-o+:7766677776:6677*$$:-OO-",
"-+oX#--:67::*::7766:%%:76%-$#..-",
"XXoo.%:77:%O.$:7t::$$.*:t6:$. oo",
"o+-%+:7tt:*$ .%7t7$  $:67t6%$--O",
"O%666676677:$O-7t7%$$:77767367:$",
"O-7t77766tt7:%:7t7:%:tt766777t3-",
"O%67766777t7:766666:6t77767677:$",
"%:776763::*:677777t7:::::677776:",
"66777773%O.$:t777777:O.O:3777776",
"76:::67:$.O$:56:::66:$..$373:::6",
"7:+O$%7:+O-376-O.O-776-O$33%OO-:",
"6:+. $63%%37t3:$O$:7tt:%:6:O O-:",
"763%.$373337773:::77t76:57:OO:35",
"77t=$$:777776:77777::677t7:%%377",
"777433557773%$:777:$:377573:3377",
"007777557773$.:7t6$.$37773777767",
"uy00076677t:+O*7t6$.@67766770770",
"jd9033677773%%:7t7-$*6777663300q",
"mch0=*377775:367t7:63677773&=tuh",
"ANl9&&473377776:::777763704&=9jb",
"JAbe2107**6705*+O-:7t03-=y92wrzC",
"PJCxapdq*%<707*OOO:0t7>&0djkzBCK",
"IIJSVNbg8,>10004340t91>2pvNBAFKU",
"IIILHDANzrwwihfdsdhheeeknBSHKPIU",
"UUIIILJFSBNMmmbbbbmmmMBZDHLPIIUU",
"UUUUIUIPLJHGDAAAAAAADGHJPPIIUUUU",
"UUUUUUUUIIIPPLLLLPLPPPIIIUUUUUUU",
"UUUUUUUUUUUIIIIIIIIIIUUUUUUUUUUU",
"UUUUUUUUUUUUUUUUUUUUUUUUUUUUUUUU",
"UUUUUUUUUUUUUUUUUUUUUUUUUUUUUUUU",
"UUUUUUUUUUUUUUUUUUUUUUUUUUUUUUUU",
"UUUUUUUUUUUUUUUUUUUUUUUUUUUUUUUU"
};
