/* XPM */
static char *result[] = {
/* columns rows colors chars-per-pixel */
"32 32 180 2 ",
"   c #11081D",
".  c #09151A",
"X  c #121E13",
"o  c #2F1F1C",
"O  c #23201A",
"+  c #12192C",
"@  c #231C21",
"#  c #281B21",
"$  c #351926",
"%  c #1C2323",
"&  c #16312B",
"*  c #2A2822",
"=  c #27242C",
"-  c #282628",
";  c #362B27",
":  c #283128",
">  c #273A28",
",  c #2A3A2C",
"<  c #262D32",
"1  c #2B3A36",
"2  c #353933",
"3  c #47171A",
"4  c #5B3F1D",
"5  c #703D1C",
"6  c #601721",
"7  c #7A1F25",
"8  c #422924",
"9  c #533122",
"0  c #543C29",
"q  c #4A3A31",
"w  c #453D38",
"e  c #513F3D",
"r  c #643622",
"t  c #2E5F0D",
"y  c #39570E",
"u  c #354E11",
"i  c #395718",
"p  c #3C6207",
"a  c #3E740E",
"s  c #35651A",
"d  c #3A761A",
"f  c #1B4C32",
"g  c #2D442D",
"h  c #2D4432",
"j  c #2A4A35",
"k  c #334636",
"l  c #235532",
"z  c #267737",
"x  c #277738",
"c  c #29773A",
"v  c #27783C",
"b  c #2B7A3B",
"n  c #3A773D",
"m  c #61481C",
"M  c #7C461A",
"N  c #477C13",
"B  c #5F4D21",
"V  c #474739",
"C  c #43553B",
"Z  c #694728",
"A  c #69483B",
"S  c #715130",
"D  c #56742B",
"F  c #313744",
"G  c #6A3761",
"H  c #7A3967",
"J  c #074043",
"K  c #194847",
"L  c #11504A",
"P  c #115A50",
"I  c #3B4D49",
"U  c #2E5C44",
"Y  c #345843",
"T  c #13655A",
"R  c #327D42",
"E  c #147D69",
"W  c #47504D",
"Q  c #525849",
"!  c #445B51",
"~  c #6F5A41",
"^  c #6B5948",
"/  c #705840",
"(  c #596C42",
")  c #5B7141",
"_  c #4C6858",
"`  c #51705F",
"'  c #676444",
"]  c #71644B",
"[  c #6C6A53",
"{  c #764466",
"}  c #707C60",
"|  c #940E1B",
" . c #AA0616",
".. c #9B5115",
"X. c #AE5707",
"o. c #B26A09",
"O. c #8F4D25",
"+. c #825C24",
"@. c #965624",
"#. c #8B613F",
"$. c #A26528",
"%. c #B46E27",
"&. c #D6761E",
"*. c #CF6D2C",
"=. c #825646",
"-. c #876045",
";. c #896449",
":. c #97634C",
">. c #8F774B",
",. c #947A4C",
"<. c #846A53",
"1. c #877D50",
"2. c #967951",
"3. c #987850",
"4. c #AA7E51",
"5. c #B07752",
"6. c #904275",
"7. c #967D67",
"8. c #2F833D",
"9. c #31813E",
"0. c #49890A",
"q. c #599F0E",
"w. c #488418",
"e. c #558713",
"r. c #539310",
"t. c #63871D",
"y. c #5CA80D",
"u. c #5FA710",
"i. c #65A818",
"p. c #6DBB14",
"a. c #76BE1A",
"s. c #77C419",
"d. c #358141",
"f. c #3A8544",
"g. c #3C8D42",
"h. c #3F8648",
"j. c #3F9043",
"k. c #1C856E",
"l. c #2E8465",
"z. c #30896F",
"x. c #1AA676",
"c. c #1FB176",
"v. c #30B372",
"b. c #458F45",
"n. c #408849",
"m. c #449246",
"M. c #499449",
"N. c #499949",
"B. c #5B914D",
"V. c #468B54",
"C. c #7A8F45",
"Z. c #61A85F",
"A. c #419067",
"S. c #429E71",
"D. c #3DCF76",
"F. c #43DD73",
"G. c #44EB77",
"H. c #45F779",
"J. c #81C425",
"K. c #8ECF36",
"L. c #AA855E",
"P. c #B48552",
"I. c #8CB052",
"U. c #A5B94F",
"Y. c #9D8664",
"T. c #B89868",
"R. c #D98762",
"E. c #99C65B",
"W. c #B7C951",
"Q. c #ACD35B",
"!. c #87C468",
"~. c #91CA64",
"^. c #9C3F88",
"/. c #A04E80",
"(. c #C05692",
"). c #CE4EA3",
"_. c #EA6BCD",
"`. c #FC67C6",
"'. c #B8B088",
"]. c #D2EABE",
/* pixels */
"n.f.b b h.h.c b g.N.N.N.N.N.N.M.M.N.N.N.M.N.N.m.8.c f.h.b c f.n.",
"f.R V.R d.: : : : : : : : : : : : : : : : : : * : : : d.b c n n.",
"b n.c R : : 3.3.3.3.3.3.3.3.3.3.3.3.2.2.3.3.3.3.2.3.: : v z b 8.",
"z b d.: S 3.3.T.T.T.T.T.3.3.T.T.T.T.3.3.T.T.T.T.T.3.3./ : d.x z ",
"c R , / 2.T.T.T.T.T.T.3.T.T.T.T.T.T.T.T.3.T.T.T.T.T.T.3.~ < d.b ",
"b , / 3.T.2.T.T.T.T.3.T.T.T.3.3.3.3.T.T.T.3.T.T.T.T.3.T.3.S : b ",
", / 3.T.T.2.T.T.T.3.T.T.T.3.T.T.T.T.3.T.T.T.3.T.T.T.3.T.T.3.~ : ",
": 3.T.T.T.2.'.'.'.3.'.'.'.3.'.'.'.'.3.'.'.'.3.'.'.'.3.T.T.T.2.: ",
": 3.T.T.'.3.3.3.3./ / 3.3.3./ / / / 3.3.3./ / 3.3.3.3.'.T.T.3.: ",
": 3.T.'.3./ 3.3.3.3./ / 3.3.3.3.3.3.3.3./ / 3.3.3.3./ 3.'.T.3.: ",
": 3.'.3.3.2./ 2.2./ / / [ Q V V C } / / ~ ^ ~ 2.2.' >.3.3.'.3.: ",
": 3.T.3.3.2.2./ , : h _ F i p y i W ! k : : : : ~ ,.1.3.3.T.3.: ",
": / 3.3.3.3.2.j h ! ` u p i.s.s.s.N u ` _ 1 k , , 3.3.3.3.3./ : ",
": / / 3.3.2.S h -.<.+ a s.J.J.i.i.p.e.+ ^ :.j : , / 3.3.3./ / : ",
": S ^ / 3.2./ g 5.;.  N s.i.r.> O 0.q.t A R.> , , / 3.3./ / / : ",
"- / 3./ / / ' , O.A ..M d i w.w.0.w.m o.0 @.h g , / ^ S / 3./ : ",
": / 3.3./ ~ ~ , M &.Z X.M s p.s.K.].D O 4 ..h j : / / / 2.3./ : ",
": / 3.3.3.2.~ , 5 &.0 % X.m w.u.a.E.0.* *...= j , / 3.3.3.3./ : ",
": / / 3.3.2.^ , k O /.6.; o + e.a.p.N { /.#.4.W I S 2.2.3./ / : ",
"~ : / / 3.2.~ : ' Q H `._.G . 0.u.i.e ^.q ,.Y.7.! ] 2.2./ / : / ",
"/ : : / / / / , ) ^ X 6.)._.{ a y.s.@ - * A P.0 ` ] / / / : : / ",
"/ : : : / / / 1 g M 0 & f /.(.$ N t.1 ; $.m V #.! ] / / : : : / ",
": : 3.: 3.3./ , r %.8 T D.R j Y h U l.8 $.0 2 A I ^ 3.3.: 3.: : ",
"- / 3.: 3.3./ , 8 Z +.V.z.F.H.F.G.G.l.I 9 < 4.>.Y ' 3.3.: 3./ : ",
": / 3.: 3.3./ , 9 ; I.W.A.x.F.F.G.c.S.C.; P.=.k h ~ 2.3.: 3./ : ",
": / 3.: S ^ / h B 3 P !.U.U.z.x.v.I.W.I.w -.1 ' : / / / : 3./ : ",
": / 2.: / / ^ , ) <.Q E !.W.U.U.U.Q.I.K = < ( / : / / / : 3./ : ",
": / : 3.3.3./ : 3.L.; & P k.~.Q.E.T J o W 1.2.2.: / 3.3.2.: / : ",
": / / / / / / : Z.( . 7  .V L L K | | . C f.j.Z.: / / / / / / : ",
": / / / / / / , N.B.V 3 | $ + # o 7 6 2 n 8.m.N.: / ~ / / / / : ",
": / / / / / / , N.N.M.9.l % ; : - & 9.M.g.m.N.N.: ~ / / / / / : ",
"n.: : : : : : f.m.N.N.N.N.m.b.b.b.M.N.N.N.N.N.m.n.: : : : : * n."
};
