/* XPM */
static char *result[] = {
/* columns rows colors chars-per-pixel */
"32 32 217 2 ",
"   c #050B19",
".  c #031417",
"X  c #13131B",
"o  c #130512",
"O  c #28191B",
"+  c #331819",
"@  c #2C1410",
"#  c #1B261D",
"$  c #082A08",
"%  c #232914",
"&  c #2C2911",
"*  c #0C1E25",
"=  c #1B1B26",
"-  c #261923",
";  c #231E32",
":  c #2C0B24",
">  c #182428",
",  c #1B352B",
"<  c #172F35",
"1  c #083237",
"2  c #193333",
"3  c #0A2A32",
"4  c #252325",
"5  c #292628",
"6  c #262728",
"7  c #362727",
"8  c #213120",
"9  c #2E3721",
"0  c #242333",
"q  c #273A35",
"w  c #3C323C",
"e  c #451B1A",
"r  c #483617",
"t  c #4F3313",
"y  c #753B17",
"u  c #673B0F",
"i  c #461C36",
"p  c #531E3D",
"a  c #6D182A",
"s  c #4D2A2A",
"d  c #71392C",
"f  c #364116",
"g  c #355E12",
"h  c #3B600C",
"j  c #1D5435",
"k  c #174A35",
"l  c #294826",
"z  c #294435",
"x  c #374737",
"c  c #2B573C",
"v  c #265126",
"b  c #2E6538",
"n  c #376C3D",
"m  c #7C421B",
"M  c #684A13",
"N  c #486F18",
"B  c #53502F",
"V  c #754F32",
"C  c #49632A",
"Z  c #787B3E",
"A  c #3C2A44",
"S  c #3D2967",
"D  c #512C51",
"F  c #673D53",
"G  c #623864",
"H  c #14504A",
"J  c #2C534A",
"K  c #39545B",
"L  c #324F4B",
"P  c #1E6D4D",
"I  c #367B46",
"U  c #236740",
"Y  c #0B6D67",
"T  c #5A4F47",
"R  c #445A54",
"E  c #585658",
"W  c #4E5B46",
"Q  c #744D4F",
"!  c #427E41",
"~  c #41734B",
"^  c #736851",
"/  c #685962",
"(  c #527265",
")  c #6A7A6C",
"_  c #820C1E",
"`  c #B02F1C",
"'  c #D1141F",
"]  c #E42C11",
"[  c #8A5010",
"{  c #A9550F",
"}  c #B46117",
"|  c #945624",
" . c #8A5630",
".. c #8B6624",
"X. c #B66522",
"o. c #B4733C",
"O. c #C85901",
"+. c #C86205",
"@. c #CF6E15",
"#. c #D2731B",
"$. c #CD761C",
"%. c #E97404",
"&. c #CE762B",
"*. c #E17E2F",
"=. c #88544C",
"-. c #886347",
";. c #9B6E49",
":. c #A76847",
">. c #B36D40",
",. c #8D487B",
"<. c #8C786D",
"1. c #C87B40",
"2. c #33A118",
"3. c #3B873D",
"4. c #279412",
"5. c #4E930D",
"6. c #4A880E",
"7. c #54AA12",
"8. c #63AB11",
"9. c #4F832F",
"0. c #78BE22",
"q. c #69960C",
"w. c #77C216",
"e. c #6BC726",
"r. c #379651",
"t. c #358A6B",
"y. c #37936B",
"u. c #359971",
"i. c #2A8E70",
"p. c #3AAA77",
"a. c #3AB86E",
"s. c #499D4A",
"d. c #459546",
"f. c #448844",
"g. c #4BA34C",
"h. c #4DAC4E",
"j. c #52B154",
"k. c #4F8D72",
"l. c #708276",
"z. c #70A75C",
"x. c #3DD072",
"c. c #33EB7C",
"v. c #40DF73",
"b. c #44EB7A",
"n. c #57C657",
"m. c #D89501",
"M. c #C58002",
"N. c #FF8D00",
"B. c #EAA007",
"V. c #F18C3A",
"C. c #85C824",
"Z. c #89D421",
"A. c #FFF134",
"S. c #A3A040",
"D. c #FA9D50",
"F. c #FEA65C",
"G. c #FFB05D",
"H. c #D59962",
"J. c #E69C61",
"K. c #F49F61",
"L. c #EDA169",
"P. c #F6A771",
"I. c #FFBC77",
"U. c #FBA86A",
"Y. c #DB8B4F",
"T. c #CFD54F",
"R. c #CEE552",
"E. c #F3F14B",
"W. c #0808C6",
"Q. c #1D1DCB",
"!. c #2222CC",
"~. c #5656DF",
"^. c #4848DB",
"/. c #5E5EE1",
"(. c #6262EA",
"). c #6969ED",
"_. c #7373F0",
"`. c #6D6DF0",
"'. c #A64C85",
"]. c #B85492",
"[. c #B34F96",
"{. c #D25D9D",
"}. c #CB56A1",
"|. c #E15FB0",
" X c #E660B3",
".X c #F665BC",
"XX c #FF69C6",
"oX c #FF74DC",
"OX c #FF77E0",
"+X c #6F9587",
"@X c #45FE82",
"#X c #42E684",
"$X c #9C9493",
"%X c #928E83",
"&X c #AA9891",
"*X c #ACA399",
"=X c #9A99A2",
"-X c #A99FA9",
";X c #A8A7AA",
":X c #D7B89D",
">X c #88D3A4",
",X c #FFC881",
"<X c #FFD198",
"1X c #FFD3B1",
"2X c #9898FE",
"3X c #AEAEFF",
"4X c #B7B7FF",
"5X c #A8C0D4",
"6X c #E8E1CD",
"7X c #E7E8D2",
"8X c #FFF2D8",
"9X c #D0CDE8",
"0X c #EDEDED",
"qX c #EBEBFF",
"wX c #FEFEFF",
"eX c #FCF4E8",
"rX c None",
/* pixels */
"rXrXrXrXrXrXrXrXrXrXrXrXrXrXrXrXrXrXrXrXrXrXrXrXrXrXrXrXrXrXrXrX",
"rXrXrXrXrXrXrXrXrXrXrXrXj.x - 6 6 0 ~ rXrXrXrXrXrXrXrXrXrXrXrXrX",
"rXrXrXrXrXrXrXrXrXrXrXrXq g N N 9.h l q w rXrXrXrXrXrXrXrXrXrXrX",
"rXrXrXrXrXrXrXrXrXrXrXL 8 6.8.0.Z.w.N 9 9 R k.rXrXrXrXrXrXrXrXrX",
"rXrXrXrXrXrXrXrXrXrXR % 8.5.8.C.C.0.Z.C.5.@ ( >XrXrXrXrXrXrXrXrX",
"rXrXrXrXrX+XJ z >Xx . d N.q.4.7.e.2.m.%., 6.C ; 2 rXrXrXrXrXrXrX",
"rXrXrXrXrXJ Q ;.R ,.p $ u @.m.m.B.m.{ @ . 7.h s :.x rXrXrXrXrXrX",
"rXrXrXrXrX> :.U.  XX{.w S { +.O.O.O.V S F N $ ^ I.+ rXrXrXrXrXrX",
"rXrXrXrXrXq -.J.5 [.XXoXXXD * 0 0 * '.oX.Xi . -.P.7 ( rXrXrXrXrX",
"rXrXrXrXrX< y V.L.9 ,.oXXX X|. X|.|..XoXXX= ^ U.X.+ K rXrXrXrXrX",
"rXrXrXrXrX> y $.T ].,.A i p D F G D i 7 D }.,...@.@ c rXrXrXrXrX",
"rXrXrXrXrXU M m t [.=.& ) l.B e t ) ) W r ].=.t  .x 3.rXrXrXrXrX",
"rXrXrXrXrXrXb 7 #.% u F.eXwX:XO.&.eXwX8X+.% [ | 3 g.rXrXrXrXrXrX",
"rXrXrXrXrXrXs.r.5 X.{ H.wXR V I.J.+ 5XeX} #.d z g.g.rXrXrXrXrXrX",
"rXrXrXrXrXrXj.r.o i { D.1X6 V ,XJ.  <.<X#.y o z n.g.rXrXrXrXrXrX",
"rXrXrXrXrXrX9.b I H B X.V.O -.,XP.^ &.V.m q U I n g.rXrXrXrXrXrX",
"rXrXrXrXs.s.W E x.p.H + { T <.J.K.P.&.y 1 t.#Xr.: ! rXrXrXrXrXrX",
"rXrXrXrXs.> -X0X% 4 4 # 6 0X=Xt #.7 o q u.p.J r | 7 rXrXrXrXrXrX",
"rXrXrXrXs.# =XwX7X6X7X7X7XwX=Xo e J y.a.u.J d | V O n rXrXrXrXrX",
"rXrXrXrXs.8 $XwX4X3X3X3X4XwX$X# P a.@Xb.t.4 O | o.7 b rXrXrXrXrX",
"rXrXrXrXs.8 *XqXW.W.!.W.W.qX&Xv @Xb.v.x.t.q X -.F.7 b rXrXrXrXrX",
"rXrXrXrXs.8 *XqX!.).2X(.Q.qX&Xj c.p.i.i.i.*  .G.Y.7 b rXrXrXrXrX",
"rXrXrXrXs.8 *XqX!._.2X`.Q.qX$XC R.3 Z E.T.k.J o.F.: rXrXrXrXrXrX",
"rXrXrXrXs.% ;XwXW._.3X(.W.wX=XM A...S.R.T.y.1 7 :.B rXrXrXrXrXrX",
"rXrXrXrXrXl %X9X~.(.`.(.~.9X+XB R.E.z.Y Y s + > , s.rXrXrXrXrXrX",
"rXrXrXrXrXj.v E wX^.W./.wXT c p.y.p.J X - ' _ j h.rXrXrXrXrXrXrX",
"rXrXrXrXrXrX9.I / 9XqX9X/ 6 q z q k a ] %.d : z rXrXrXrXrXrXrXrX",
"rXrXrXrXrXrXrX9.j =X:X%XX % 4 O - = a ` { O 2 rXrXrXrXrXrXrXrXrX",
"rXrXrXrXrXrXrXrXh.9 > > 5 5 5 5 5 5 > 3 < 6 rXrXrXrXrXrXrXrXrXrX",
"rXrXrXrXrXrXrXrXs.s.h.9.- - 4 5 4 4 O x h.rXrXrXrXrXrXrXrXrXrXrX",
"rXrXrXrXrXrXrXrXrXrXg.s.! ! ! ! f.! n f.g.rXrXrXrXrXrXrXrXrXrXrX",
"rXrXrXrXrXrXrXrXrXrXrXrXrXrXrXrXrXrXrXrXrXrXrXrXrXrXrXrXrXrXrXrX"
};
