/* XPM */
static char *result[] = {
/* columns rows colors chars-per-pixel */
"32 32 224 2 ",
"   c #00170C",
".  c #021717",
"X  c #17181F",
"o  c #0B0819",
"O  c #27171C",
"+  c #0E360E",
"@  c #2B2E11",
"#  c #080624",
"$  c #1B0A21",
"%  c #081522",
"&  c #161925",
"*  c #171C32",
"=  c #251D26",
"-  c #231927",
";  c #2A1633",
":  c #1E2429",
">  c #172729",
",  c #07393A",
"<  c #1D2731",
"1  c #222326",
"2  c #252429",
"3  c #292628",
"4  c #242B2A",
"5  c #2B2629",
"6  c #342627",
"7  c #273623",
"8  c #343829",
"9  c #262932",
"0  c #363635",
"q  c #2B3037",
"w  c #75151E",
"e  c #4A291D",
"r  c #53291F",
"t  c #4B361D",
"y  c #563119",
"u  c #4C1C20",
"i  c #51182C",
"p  c #422925",
"a  c #542928",
"s  c #41332A",
"d  c #423636",
"f  c #5B3A27",
"g  c #653C2F",
"h  c #733C15",
"j  c #334819",
"k  c #324F13",
"l  c #387804",
"z  c #3B6A15",
"x  c #357319",
"c  c #2E7E18",
"v  c #14453C",
"b  c #1A4C2C",
"n  c #244929",
"m  c #314323",
"M  c #354B3A",
"N  c #255C36",
"B  c #324A33",
"V  c #146138",
"C  c #3E743D",
"Z  c #3A7638",
"A  c #2E6835",
"S  c #545618",
"D  c #66421A",
"F  c #784919",
"G  c #774C00",
"H  c #4C7916",
"J  c #447114",
"K  c #5D4228",
"L  c #46443C",
"P  c #4F4C26",
"I  c #774E28",
"U  c #664939",
"Y  c #69513B",
"T  c #6E4C2C",
"R  c #456221",
"E  c #496731",
"W  c #746532",
"Q  c #353F50",
"!  c #461A4A",
"~  c #502E4C",
"^  c #593363",
"/  c #783864",
"(  c #065C5B",
")  c #165551",
"_  c #174143",
"`  c #3E5953",
"'  c #304E49",
"]  c #186454",
"[  c #38784A",
"{  c #2F705A",
"}  c #1B7B69",
"|  c #237C67",
" . c #4E504D",
".. c #735647",
"X. c #6B5148",
"o. c #436747",
"O. c #4F764F",
"+. c #7C6146",
"@. c #425060",
"#. c #7D4263",
"$. c #537566",
"%. c #990716",
"&. c #8D0A17",
"*. c #901621",
"=. c #CD101F",
"-. c #C91821",
";. c #E11520",
":. c #895317",
">. c #A75A1A",
",. c #BA6512",
"<. c #875425",
"1. c #985D26",
"2. c #804F25",
"3. c #A45D21",
"4. c #9B6129",
"5. c #AC6C29",
"6. c #CD5F0B",
"7. c #DE7E14",
"8. c #FC7801",
"9. c #E57113",
"0. c #D37520",
"q. c #822966",
"w. c #8E5B41",
"e. c #8B6744",
"r. c #8C7159",
"t. c #AB7D4D",
"y. c #B27959",
"u. c #924C76",
"i. c #A05168",
"p. c #B15256",
"a. c #C37742",
"s. c #3E8609",
"d. c #3B863C",
"f. c #138638",
"g. c #48860D",
"h. c #4C910B",
"j. c #569E0E",
"k. c #569B0F",
"l. c #589813",
"z. c #4E831A",
"x. c #5AA70C",
"c. c #66B50A",
"v. c #65AC15",
"b. c #6DBB15",
"n. c #66B112",
"m. c #76B91E",
"M. c #44893D",
"N. c #679124",
"B. c #7DBF23",
"V. c #7BBC37",
"C. c #78C317",
"Z. c #6DC012",
"A. c #7EC222",
"S. c #3C9541",
"D. c #188873",
"F. c #128972",
"G. c #368969",
"H. c #3B9E72",
"J. c #2D9371",
"K. c #29BE75",
"L. c #35A574",
"P. c #438946",
"I. c #459946",
"U. c #48955E",
"Y. c #4CA44A",
"T. c #4FAC52",
"R. c #73A34F",
"E. c #43976B",
"W. c #588B77",
"Q. c #4F8F64",
"!. c #618E73",
"~. c #4ABB77",
"^. c #71B969",
"/. c #3FCF72",
"(. c #41D375",
"). c #42CF72",
"_. c #43E375",
"`. c #44ED75",
"'. c #46F676",
"]. c #C6A200",
"[. c #C39A2C",
"{. c #F28321",
"}. c #85E116",
"|. c #84C725",
" X c #87C53A",
".X c #FFEA3A",
"XX c #FFF53B",
"oX c #99B855",
"OX c #8BB157",
"+X c #A5BD52",
"@X c #C58A58",
"#X c #CA9153",
"$X c #D99351",
"%X c #EDA95D",
"&X c #C39A6D",
"*X c #E69B66",
"=X c #D3A774",
"-X c #F9AF78",
";X c #B7C651",
":X c #A4C458",
">X c #81C86D",
",X c #98D046",
"<X c #CFD34D",
"1X c #EADC46",
"2X c #C3E25C",
"3X c #FFE140",
"4X c #AA3484",
"5X c #BB4BA4",
"6X c #EC6981",
"7X c #EE61B6",
"8X c #DE5AAC",
"9X c #FE6BC5",
"0X c #FF6FD1",
"qX c #FF72DD",
"wX c #5D9A83",
"eX c #6BAB86",
"rX c #79B591",
"tX c #7BC198",
"yX c #47F182",
"uX c #8AD5A5",
"iX c #8DE1AD",
"pX c #EBCC97",
"aX c #E0F2CA",
"sX c None",
/* pixels */
"sXsXsXsXsXsXsXsXsXsXsXsXsXsXsXsXsXsXsXsXsXsXsXsXsXsXsXsXsXsXsXsX",
"sXsXsXsXsXsXsXsXsXsXsXwX' - q 5 = W.iXsXsXsXsXsXsXsXsXsXsXsXsXsX",
"sXsXsXsXsXsXsXsXsXrX` Q m k k k k  .@.$.uXsXsXsXsXsXsXsXsXsXsXsX",
"sXsXsXsXsXsXsXtXrXo.@ @ l.b.c.b.Z.J @ m !.uXeXsXsXsXsXsXsXsXsXsX",
"sXsXsXsXY.C 6 rX .@ x.j.m.|.A.C.m.|.C.J X eX$.= W.sXsXsXsXsXsXsX",
"sXsXsXsXN U *XL % j x.b.B.|.m.j.j.x.j.g.- > y.y.4 P.sXsXsXsXsXsX",
"sXsXsXsXn Y -Xs # b c.|.b.n.z.1 3 J x.x.c   a.-XX P.sXsXsXsXsXsX",
"sXsXsXsXN g $X< G :.N b.R z J m 8 l l S ].8 w.a.: P.sXsXsXsXsXsX",
"sXsXsXsX] y ,.s ,.6.p x 7 R c.n.x.V.O.e 9.6 D >.4 I.sXsXsXsXsXsX",
"sXsXsXsXN a 0.0.6 F 8.6 z b.|.B.c.aXaXl 1 & <.>.: P.sXsXsXsXsXsX",
"sXsXsXsXN u 0.{.t . F 8.D x c.l.b.,X Xg.: G 7.>.% q M.sXsXsXsXsX",
"sXsXsXsXS.P y D i.^   G 6 < z k.|.C.c.g.. 6Xp.P @XX ' ~.sXsXsXsX",
"sXsXsXsXQ.M.0 . 8X9X~ ~ > # 7 j.v.|.v.R / 5Xu.W @Xr.$.W.sXsXsXsX",
"sXsXsXsXsXR.=X7 / 7X9X0X#.& j j.h.m.z.! 7X9 W #X .pXe. .sXsXsXsX",
"sXsXsXsXsXR.=X0 . #.0X9X9X/ + j.h.m.N.- 6 1 . Y %X .- $.sXsXsXsX",
"sXsXsXsXU.M.0 I 8 3 ~ i 7XqXu.j h.}.N.o : K I K U #XU $.sXsXsXsX",
"sXsXsXsX[ B t 4.f , V f./ 4Xq.o j S E ' 3 <.5.I % e.U ` sXsXsXsX",
"sXsXsXsXN u 5.4.u _ ~.yXV + b N 0 4 { H.= 2.4.K 4 L 0 @.sXsXsXsX",
"sXsXsXsXA p 1.4.e v H.G.(.'._._._.`./.{ 3 :.f & L %X<.' sXsXsXsX",
"sXsXsXsXA - 3 = [.;XF.G./.'._._._.'./.G.D.0 &  .%X..o.Y.sXsXsXsX",
"sXsXsXsXN u 3.$ P.2X<XD.F.L.~._.'./.F.H.<X8 Y $X..; [ T.sXsXsXsX",
"sXsXsXsX[ P :.O ( ^.<XoXoXQ.F./.K.T.OX:X2Xm ..t.* M P.sXsXsXsXsX",
"sXsXsXsXsXd.9 0 [ F.J.1X.XoXE.Q.G.;X3X<X} q - 9 L Y.sXsXsXsXsXsX",
"sXsXsXsXsXsX&X=XU v wXE.J.+X.X.X.XOXL.G.3 0 q M I.sXsXsXsXsXsXsX",
"sXsXsXsXsXsXsX..6 > v , D.^.^.^.>Xo., , 3 1 ..sXsXsXsXsXsXsXsXsX",
"sXsXsXsXsXsXsX& . a &.&.L ] ) ) ) a %.w 2 . sXsXsXsXsXsXsXsXsXsX",
"sXsXsXsXsXsXsXX.> a -.-.u & O O > *.;.*.- 0 sXsXsXsXsXsXsXsXsXsX",
"sXsXsXsXsXsXsXsX..X 4 1 4 2 4 3 4 1 4 4 4 sXsXsXsXsXsXsXsXsXsXsX",
"sXsXsXsXsXsXsXsXsXS.Z : = 3 1 1 = $ n S.d.sXsXsXsXsXsXsXsXsXsXsX",
"sXsXsXsXsXsXsXsXsXsXY.Z Z [ E o.C C M.sXsXsXsXsXsXsXsXsXsXsXsXsX",
"sXsXsXsXsXsXsXsXsXsXsXsXsXsXsXsXsXsXsXsXsXsXsXsXsXsXsXsXsXsXsXsX",
"sXsXsXsXsXsXsXsXsXsXsXsXsXsXsXsXsXsXsXsXsXsXsXsXsXsXsXsXsXsXsXsX"
};
