/* XPM */
static char *result[] = {
/* columns rows colors chars-per-pixel */
"32 32 217 2 ",
"   c #09071D",
".  c #170B1C",
"X  c #071617",
"o  c #16191C",
"O  c #0F1D06",
"+  c #27181F",
"@  c #361815",
"#  c #072514",
"$  c #18231D",
"%  c #0C3118",
"&  c #29241D",
"*  c #2D391E",
"=  c #050A25",
"-  c #130626",
";  c #0C1324",
":  c #091B28",
">  c #161925",
",  c #0C1F31",
"<  c #231623",
"1  c #251C25",
"2  c #241827",
"3  c #2A1623",
"4  c #0B2B2B",
"5  c #1A2528",
"6  c #183522",
"7  c #1B373A",
"8  c #0C3E3E",
"9  c #262427",
"0  c #2A2925",
"q  c #242329",
"w  c #242B2A",
"e  c #292A29",
"r  c #292526",
"t  c #33282A",
"y  c #2B342C",
"u  c #273A29",
"i  c #343427",
"p  c #2B3637",
"a  c #363637",
"s  c #262D32",
"d  c #4B1A13",
"f  c #573A18",
"g  c #41240A",
"h  c #462526",
"j  c #572326",
"k  c #463726",
"l  c #543727",
"z  c #782023",
"x  c #10511A",
"c  c #2E4E1A",
"v  c #34651A",
"b  c #144E3A",
"n  c #2D4628",
"m  c #2B572E",
"M  c #314A32",
"N  c #314531",
"B  c #385835",
"V  c #35512A",
"C  c #29682A",
"Z  c #2D6830",
"A  c #39693A",
"S  c #2F7331",
"D  c #307430",
"F  c #327B31",
"G  c #3E753C",
"H  c #327328",
"J  c #674117",
"K  c #764819",
"L  c #734B0D",
"P  c #446919",
"I  c #487814",
"U  c #467E0F",
"Y  c #444736",
"T  c #54412D",
"R  c #6B4325",
"E  c #764E2D",
"W  c #7F6127",
"Q  c #1F2340",
"!  c #3E3948",
"~  c #4C3941",
"^  c #4D2E50",
"/  c #603A44",
"(  c #493A6B",
")  c #712B67",
"_  c #1D4D49",
"`  c #1C534B",
"'  c #0B5A45",
"]  c #394542",
"[  c #2A5A4B",
"{  c #2F4C43",
"}  c #31765C",
"|  c #1F7061",
" . c #454649",
".. c #534344",
"X. c #427D41",
"o. c #4D5065",
"O. c #7A5160",
"+. c #62786D",
"@. c #51726F",
"#. c #B91621",
"$. c #832E21",
"%. c #D11121",
"&. c #9C5407",
"*. c #954D17",
"=. c #92551C",
"-. c #AF5903",
";. c #AD6F0A",
":. c #965C24",
">. c #865223",
",. c #91662F",
"<. c #A76627",
"1. c #AD7538",
"2. c #C5720F",
"3. c #FC7700",
"4. c #F36207",
"5. c #D17A2A",
"6. c #812D5E",
"7. c #852E64",
"8. c #8B5250",
"9. c #8C6648",
"0. c #956944",
"q. c #AB664A",
"w. c #B67448",
"e. c #8B436D",
"r. c #9C4678",
"t. c #C77F62",
"y. c #2F9414",
"u. c #368133",
"i. c #4A8B0C",
"p. c #4A950D",
"a. c #53990E",
"s. c #538C13",
"d. c #67880B",
"f. c #6C9311",
"g. c #56A516",
"h. c #59A50B",
"j. c #67AB17",
"k. c #6FB81B",
"l. c #518632",
"z. c #658F23",
"x. c #699B22",
"c. c #76B421",
"v. c #74AC22",
"b. c #7BC51B",
"n. c #378349",
"m. c #34875B",
"M. c #2AA55D",
"N. c #348364",
"B. c #37946D",
"V. c #3BAB77",
"C. c #438444",
"Z. c #458A45",
"A. c #499949",
"S. c #459645",
"D. c #4C8954",
"F. c #4AA34A",
"G. c #4EAA4E",
"H. c #50B350",
"J. c #4FB44F",
"K. c #61AF6A",
"L. c #54AB6D",
"P. c #3ECC79",
"I. c #3FE476",
"U. c #40D571",
"Y. c #43E57D",
"T. c #848E06",
"R. c #848138",
"E. c #AA9432",
"W. c #C68905",
"Q. c #FF8200",
"!. c DarkOrange",
"~. c #F68A10",
"^. c #F68C34",
"/. c #84D71A",
"(. c #85CA22",
"). c #8BD023",
"_. c #E8D33F",
"`. c #CA885C",
"'. c #C8804A",
"]. c #E69352",
"[. c #ED9550",
"{. c #FFAA5A",
"}. c #CB9768",
"|. c #CE8F63",
" X c #E59964",
".X c #F8B573",
"XX c #BFD959",
"oX c #E6DC4A",
"OX c #F4E748",
"+X c #FFC07D",
"@X c #3F3881",
"#X c #503DA0",
"$X c #7C6B9C",
"%X c #574B91",
"&X c #746BD5",
"*X c #7474FF",
"=X c #AF4988",
"-X c #B04CA0",
";X c #C54F97",
":X c #CD569F",
">X c #D45AA8",
",X c #E15DB3",
"<X c #ED62B6",
"1X c #F967BB",
"2X c #FD69C6",
"3X c #FF71D4",
"4X c #45E383",
"5X c #9A8D94",
"6X c #9D9CF8",
"7X c #8787FF",
"8X c #ABABEB",
"9X c #CBCBFF",
"0X c #EBECF2",
"qX c #FEFFFF",
"wX c #F9FBFA",
"eX c #F3F4EF",
"rX c None",
/* pixels */
"rXrXrXrXrXrXrXrXrXrXrXrXrXrXrXrXrXrXrXrXrXrXrXrXrXrXrXrXrXrXrXrX",
"rXrXrXrXrXrXrXrXrXrXrXrXrXrXrXrXrXrXrXrXrXrXrXrXrXrXrXrXrXrXrXrX",
"rXrXrXrXrXrXrXrXrXrXD V r r r 1 u S D rXrXrXrXrXrXrXrXrXrXrXrXrX",
"rXrXrXrXrXrXrXD D s - V (.c.f.p.v , F F rXrXrXrXrXrXrXrXrXrXrXrX",
"rXrXrXrXrXrXF S N c P x.b.b.g.f.;.*.u % C F rXrXrXrXrXrXrXrXrXrX",
"rXrXrXrXrXm u u 2 g./.).b.g.y.;.Q.Q.o ) Y x F rXrXrXrXrXrXrXrXrX",
"rXrXrXD Z n i e q x.b.c.j.d.d.W.3.&.~ 2X=Xw Z rXrXrXrXrXrXrXrXrX",
"rXrXrXS 1 z.b.U s I p.i.f.3.3.Q.&.s ,X1X2X;Xo C rXrXrXrXrXrXrXrX",
"rXrXm y z.(.j.i.s.a.x f !.!.L O ..,X<X1X3X;X# C rXrXrXrXrXrXrXrX",
"rXrXm 1 v.c.s.a.h.c 9.q.@ f e.-X,X3X2X) ^ ..C F rXrXrXrXrXrXrXrX",
"rXrXm 1 (.x.i.a.v   t..Xp : :X2Xr.7.r.f O % m c C rXrXrXrXrXrXrX",
"rXrXrXy I g.i.P 1 - 0..X X$ :X7.# { # 5.E ; ! ( B u.rXrXrXrXrXrX",
"rXrXrXD q I P > 9 5 K ^.|.: ;X6.+.wXe  X9.X  .7X( Z G.rXrXrXrXrX",
"rXrXrXrXC 9 B Z.q X K ~.:.X ,X7.@.qX> `.+Xq.! 0X6X( V rXrXrXrXrX",
"rXrXrXrXrXA Z.S.1 =Xe.L 2.=.^ 8.}.}.`.^.,.t Y wXwX$X* rXrXrXrXrX",
"rXrXrXrXrXrXrXrXB =X^ X :.5.L 1.^.-.q.R E T  .0XqX5X6 rXrXrXrXrX",
"rXrXrXrXrXrXrXrXG.% 5 _ y :.<.=.=.>.4 = w.].s 0XqX5X6 F.rXrXrXrX",
"rXrXrXrXrXrXrXrXrX0 [ V.N.1 q > + u B.4 *.&.p 0XwX5Xu F.rXrXrXrX",
"rXrXrXrXrXrXrXrXrXr n.4XN.> . [ N.} U.V.B @  .qX9X%Xn rXrXrXrXrX",
"rXrXrXrXrXrXrXrXF.  M.I.a R R Y m.Y.P.` 5 o  .8X6X#Xn rXrXrXrXrX",
"rXrXrXrXrXrXrXrXA ,.A.' @ :.<.d b P._ W f 5 ] *X&Xo.G rXrXrXrXrX",
"rXrXrXrXrXrXrXn.3 oXE.. t ,.<.R { } k OXR.  ^ &X~ v G.rXrXrXrXrX",
"rXrXrXrXrXrXrXZ.e | XXE.t ].].{.9.0 _.K._ r a a Z.F.rXrXrXrXrXrX",
"rXrXrXrXrXrXrXA.Z.w N.D.h ].].{.w.5 L.p Z F.Z.l.S.rXrXrXrXrXrXrX",
"rXrXrXrXrXrXrXF.H.i 7 b k {.{.'.a 4 _ 1 i C.H.F.rXrXrXrXrXrXrXrX",
"rXrXrXrXrXrXrXrXA y + . y 9.0.p . z + e < 9 G A.rXrXrXrXrXrXrXrX",
"rXrXrXrXrXrXrXrX< 1 r t h < + * $.#.r w w 2 q S.rXrXrXrXrXrXrXrX",
"rXrXrXrXrXrXrXrX9 1 5 j %.%.4.!.-.4 w r e 1 e rXrXrXrXrXrXrXrXrX",
"rXrXrXrXrXrXrXrXC.0 > t j h l f k 5 e 1 + 0 l.rXrXrXrXrXrXrXrXrX",
"rXrXrXrXrXrXrXrXrXX.X.M ; > > ; > 3 < A } X.G.rXrXrXrXrXrXrXrXrX",
"rXrXrXrXrXrXrXrXrXrXH.C.p M M M M N N A.H.rXrXrXrXrXrXrXrXrXrXrX",
"rXrXrXrXrXrXrXrXrXrXrXA.A.A.A.A.A.A.A.rXrXrXrXrXrXrXrXrXrXrXrXrX"
};
