/* XPM */
static char *f527e6291b4f4c3e9727f01f5c688e61unSkGxzVMKtqAlFy[] = {
/* columns rows colors chars-per-pixel */
"32 32 220 2 ",
"   c #110512",
".  c #021319",
"X  c #13131B",
"o  c #2C1410",
"O  c #29171A",
"+  c #34191A",
"@  c #082A08",
"#  c #1B271D",
"$  c #292912",
"%  c #0C1E25",
"&  c #1B1B26",
"*  c #261A23",
"=  c #281328",
"-  c #1A2628",
";  c #1B362C",
":  c #102E34",
">  c #083337",
",  c #252324",
"<  c #262727",
"1  c #292628",
"2  c #352727",
"3  c #213120",
"4  c #2B3825",
"5  c #2C2637",
"6  c #273A36",
"7  c #451B1A",
"8  c #4F3313",
"9  c #483617",
"0  c #673B0F",
"q  c #753B17",
"w  c #461C36",
"e  c #531E3D",
"r  c #6D182A",
"t  c #4D2A2A",
"y  c #71392C",
"u  c #364116",
"i  c #355E12",
"p  c #3B600C",
"a  c #19512E",
"s  c #194138",
"d  c #1D5435",
"f  c #294927",
"g  c #265226",
"h  c #294434",
"j  c #374936",
"k  c #2E513C",
"l  c #385A3A",
"z  c #2E6636",
"x  c #257536",
"c  c #277638",
"v  c #277838",
"b  c #2C7B3A",
"n  c #34763E",
"m  c #327B3E",
"M  c #754518",
"N  c #486F18",
"B  c #53502F",
"V  c #754F32",
"C  c #49632A",
"Z  c #787B3E",
"A  c #3C2A44",
"S  c #3D2967",
"D  c #512C51",
"F  c #673D53",
"G  c #623864",
"H  c #14504A",
"J  c #2A5449",
"K  c #355749",
"L  c #315052",
"P  c #1E6D4D",
"I  c #316C46",
"U  c #347D43",
"Y  c #387C43",
"T  c #0B6D67",
"R  c #5A4F47",
"E  c #4B5C4A",
"W  c #585658",
"Q  c #417E41",
"!  c #417C49",
"~  c #456C52",
"^  c #736851",
"/  c #685962",
"(  c #577064",
")  c #6A7A6C",
"_  c #B02F1C",
"`  c #DB2018",
"'  c #8A5010",
"]  c #A9550F",
"[  c #B46117",
"{  c #945624",
"}  c #8A5630",
"|  c #8B6624",
" . c #B56A2A",
".. c #C85901",
"X. c #C86205",
"o. c #CF6E15",
"O. c #D0741B",
"+. c #E97404",
"@. c #CE762B",
"#. c #88544C",
"$. c #886347",
"%. c #9B6E49",
"&. c #A76847",
"*. c #8D487B",
"=. c #8C786D",
"-. c #C87B40",
";. c #279412",
":. c #33A118",
">. c #2F803B",
",. c #33833D",
"<. c #4A880E",
"1. c #4E930D",
"2. c #69960C",
"3. c #54AA12",
"4. c #63AB11",
"5. c #4F8430",
"6. c #78BE22",
"7. c #77C216",
"8. c #6BC726",
"9. c #368441",
"0. c #3C8545",
"q. c #3B8B42",
"w. c #3E9244",
"e. c #339859",
"r. c #358A6B",
"t. c #37936B",
"y. c #2A8E70",
"u. c #359971",
"i. c #3AB86E",
"p. c #3AAA77",
"a. c #428243",
"s. c #458B44",
"d. c #439446",
"f. c #459847",
"g. c #499947",
"h. c #479749",
"j. c #48954C",
"k. c #469A48",
"l. c #4A9A49",
"z. c #488956",
"x. c #4E9A55",
"c. c #529F58",
"v. c #4BA24B",
"b. c #4BA74D",
"n. c #50A04D",
"m. c #4AA050",
"M. c #55A35B",
"N. c #4F9469",
"B. c #6FA16F",
"V. c #3DD072",
"C. c #33EB7C",
"Z. c #57C657",
"A. c #40DF73",
"S. c #44EB7A",
"D. c #D89501",
"F. c #FF8D00",
"G. c #EAA007",
"H. c #F18C3A",
"J. c #86CC23",
"K. c #FFF134",
"L. c #A3A040",
"P. c #DB8B4F",
"I. c #FA9D50",
"U. c #FEA65C",
"Y. c #FFB05D",
"T. c #D59962",
"R. c #E69C61",
"E. c #F49F61",
"W. c #EDA169",
"Q. c #F8A76D",
"!. c #FFBC77",
"~. c #CFD54F",
"^. c #CEE552",
"/. c #F3F14B",
"(. c #0808C6",
"). c #1D1DCB",
"_. c #2222CC",
"`. c #4848DB",
"'. c #5656DF",
"]. c #5E5EE1",
"[. c #6464EB",
"{. c #6D6DF0",
"}. c #7373F0",
"|. c #AA4D8B",
" X c #B85492",
".X c #D25D9D",
"XX c #CB56A1",
"oX c #E15FB0",
"OX c #E660B3",
"+X c #F665BC",
"@X c #FF69C6",
"#X c #FF74DC",
"$X c #FF77E0",
"%X c #7C8A87",
"&X c #74C187",
"*X c #42E684",
"=X c #45FE82",
"-X c #928E83",
";X c #9C9493",
":X c #AA9891",
">X c #ACA399",
",X c #9A99A2",
"<X c #A99FA9",
"1X c #A8A7AA",
"2X c #D7B89D",
"3X c #FFC881",
"4X c #FFD198",
"5X c #FFD3B1",
"6X c #9898FE",
"7X c #AEAEFF",
"8X c #B7B7FF",
"9X c #A8C0D4",
"0X c #E8E1CD",
"qX c #E7E8D2",
"wX c #FFF2D8",
"eX c #D0CDE8",
"rX c #EDEDED",
"tX c #FCF4E8",
"yX c #EBEBFF",
"uX c #FEFEFF",
/* pixels */
"0.9.v U 0.9.b b d.g.h.h.j.j.j.g.g.j.j.l.f.d.l.l.q.b b 0.9.b b Y ",
"9.b x v U ,.9.q.f.h.q.w.l.K 6 h h 6 ! n.q.q.s.l.d.,.,.9.U c c m ",
"v v c x x ,.q.l.l.d.>.U h p p N 5.p u 6 J 9.9.w.v.l.q.m x x c c ",
"c b 9.,.b q.l.n.v.w.q.K 3 1.4.7.J.7.N 4 u L z.f.l.n.f.,.m ,.,.v ",
"v 9.d.l.h.c.c.x.b.c.~ # 4.<.4.J.J.6.J.J.1.$ ( &Xc.j.h.d.f.g.d.b ",
"v 9.l.m.l.B.J J B.l % 0 F.2.;.3.8.:.D.+.3 N C = 6 x.l.n.l.n.f.,.",
"v 9.k.l.c.K V %.E *.D @ 0 o.D.D.G.D.] o . 4.i t &.j l.g.g.n.d.b ",
",.w.j.l.M.; &.Q.  +XXXA D ] ..[ ....V S R N @ ^ 3X+ z.g.l.l.g.,.",
"d.f.l.l.M.s } R.5  X@X@X@XD % 5 < % |.$X+Xw . ^ Q.2 N.l.j.l.l.h.",
"l.f.q.q.z.6 M H.W.4 *.$X@XoXoXOXoXoX+X#X@X- V Y.[ + I d.a.q.s.g.",
"l.q.b c U : q O.B XX*.A w e F F G e w 2 D .X|.V o.o I ,.c c b d.",
"g.q.b x z z B ' t |.#.4 ) ) B o 9 ) ) E 9  X#.8 } j ,.b x c ,.d.",
"g.g.d.9.x w.P 2 o.$ 0 U.uXuX2X..@.tXuXwXX.# ' { > l.g.x x ,.f.h.",
"g.l.l.s.,.,.k.0.5 [ ..T.uXE } !.R.2 9XtXX.O.y h v.l.d.,.,.d.l.l.",
"g.j.g.h.w.d.b.w.  7 ] I.5X- V 3XR.  =.4XO.M o 6 Z.l.g.d.d.h.l.g.",
"g.g.g.l.l.v.5.z Y H j  .H.O $.3XW.^ -.H.M 6 H U n v.l.l.g.l.h.l.",
"k.g.g.g.l.g.E W V.i.H + ] E =.E.E.Q.@.q : r.*Xe.+ 5.g.l.l.g.g.g.",
"g.g.l.g.g.; <XrX< O 1 # , rX,X8 O.2 X 6 u.p.H t } 1 0.d.d.h.l.l.",
"g.l.l.d.f.# ;XuX0X0XqXqXqXuX,X  7 L t.i.t.J y { } * Y ,.,.d.l.l.",
"g.h.f.,.d.3 ;XuX8X7X7X7X8XuX;X# P V.S.S.r.- + }  .2 U v v 9.f.g.",
"g.q.m c ,.4 >XyX(.(.).(.(.yX:Xa =XS.A.V.y.< & $.U.2 n b x x ,.s.",
"g.q.b b d.3 >XyX_.{.6X[.).yX:Xa C.p.y.y.y.% } Y.P.2 n ,.x x b d.",
"l.f.q.q.g.3 >XyX_.}.6X{.).yX;XB ^.: Z /.~.N.J  .U.+ Y d.q.q.d.g.",
"d.k.l.l.l.# 1XuX(.{.7X[.(.uX,XM K.| L.^.~.t.> 2 %.B h.l.j.l.g.f.",
",.q.h.l.g.f -XeX'.[.{.].'.eX%XC ^./.B.T T 7 7 - ; j.l.l.l.l.f.9.",
"v 9.l.l.l.b.g W uX`.(.].uXW d p.u.p.k O = ` r a b.f.g.k.l.l.d.m ",
"v 9.l.n.l.l.g.C / eXyXeX/ 2 3 k h s r ` +.y = h v.k.k.l.n.l.f.,.",
"v 9.f.h.h.k.v.w.k ;X2X-XX # 1 * O # r _ ] O h s.j.j.k.h.h.g.d.b ",
"c b ,.,.,.q.g.v.b.f # # , 1 1 1 < 1 - : : 6 ,.l.n.l.f.9.>.,.,.v ",
"v v c c c m w.l.l.l.b.Q * * , , , , * 6 v.,.,.l.n.l.q.b x x x v ",
"9.b c c U 9.,.q.k.k.k.f.a.a.a.a.a.0.C w.f.q.d.g.d.9.9.9.n x x m ",
"q.U c U 0.9.b b w.j.k.j.l.l.l.v.l.m.m.m.f.f.l.l.q.b b a.9.b b 9."
};
