/* XPM */
static char *result[] = {
/* columns rows colors chars-per-pixel */
"32 32 71 1 ",
"  c #247436",
". c #287737",
"X c #267638",
"o c #2C7B3A",
"O c #337D3C",
"+ c #397F3B",
"@ c #367F41",
"# c #33833D",
"$ c #3C843E",
"% c #43833E",
"& c #378641",
"* c #3C8543",
"= c #3B8B42",
"- c #438D43",
"; c #4D8D44",
": c #538C44",
"> c #449446",
", c #4B9346",
"< c #489847",
"1 c #479748",
"2 c #4A9748",
"3 c #4B9B4A",
"4 c #509045",
"5 c #5D9346",
"6 c #539D4B",
"7 c #5A9D4C",
"8 c #659348",
"9 c #6B9649",
"0 c #679B4B",
"q c #6A9A4B",
"w c #739D4D",
"e c #51A14C",
"r c #5EA24D",
"t c #64A34E",
"y c #6AA24F",
"u c #72A24F",
"i c #7DA14F",
"p c #67A550",
"a c #6AA651",
"s c #6EA852",
"d c #75AB53",
"f c #81A652",
"g c #85AF56",
"h c #8CAA54",
"j c #93AC55",
"k c #85B056",
"l c #8AB357",
"z c #8DB458",
"x c #93B659",
"c c #9AB65A",
"v c #96B85B",
"b c #9BB85B",
"n c #A4BB5D",
"m c #ABBC5E",
"M c #B0BD5E",
"N c #B0C05F",
"B c #AEC060",
"V c #B5C261",
"C c #BCC563",
"Z c #C1C764",
"A c #C4C965",
"S c #CBCB66",
"D c #CFCD68",
"F c #D1CD67",
"G c #D2CE68",
"H c #D8CF69",
"J c #D7D069",
"K c #DBD26A",
"L c #E5D56D",
"P c #E9D76D",
"I c #EBD86E",
/* pixels */
"IIIIIIIIIIIIIIIIIIIIIIIIIIIIIIII",
"IIIIIIIIIIIIIIIIIIIIIIIIIIIIIIII",
"IIIIIIIIIIIIIIIIIIIIIIIIIIIIIIII",
"IIIIIIIIIIIIIIIIIIIIIIIIIIIIIIII",
"IIIIIIIIIIPILLPPLLPLIIIIIIIIIIII",
"IIIIIIIIILLKKJJKJKKKKLLLLPIIIIII",
"IIIIIIIPLJFAZCVVVCCCASFKKLLIIIII",
"IIIIIILLFCncxxxzzxxvcbmVAGJLLPII",
"IIIIPPLDmjw8ydayadddq0wfcmCSKLLP",
"IIIIPLJCh8;4676,-,676:%:0gbmCFKL",
"IIIIPLSnw;;333&o.O=373*+;ydfjmSK",
"IIIIPKZc0;16e<=#Xo=3e6>#-76:9hmD",
"IIIILHVzy22333>==>1333<>33,$:ucN",
"IIIILFNla73<>>13e31=><333<>%;ykb",
"IIIILFVkp73>##=3e1&#&>333<>>2rtd",
"IIIILFBktee>o $3e1# #133>23336rt",
"IIIILJBktee=#.$3e3# #1311133ee3e",
"IIIILGBlaee>##=331&o&13331<==333",
"IIIILFMlse3>==13ee1==333e3=##>e3",
"IIIPLHCxy633ee1===<3ee==11=X.$><",
"IIIIPJCx0423e1=oX#=1ee=#=3=# .#=",
"IIIIIKAb0%-<3>#o X=1e=# #1=&X #>",
"IIIIPKDmi%+*><>===11=#  #=1====3",
"IIIIILJVh5$$>33313e3=# X#13333<<",
"IIIIIPKAbd7,331<33ee=====33333==",
"IIIIIPLGVxdt6<<<<3<=333<333333=#",
"IIIIIILKAnly,$>33<##=ee33333ee3#",
"IIIIIILLDVxy%O$3e<###=3311=3=<=#",
"IIIIIIPLKZcq%O=3e3&  .#<ee=&####",
"IIIIIIIILSni:-<3e=## ##<33=X#   ",
"IIIIIIIIPKZxu0e33<==&&=1==&@#X #",
"IIIIIIIIPKDmkye33<<<1133&#@*&XX#"
};
