/* XPM */
static char *result[] = {
/* columns rows colors chars-per-pixel */
"32 32 71 1 ",
"  c #1F6F33",
". c #247436",
"X c #267638",
"o c #277838",
"O c #2C7B3A",
"+ c #2F803B",
"@ c #33833D",
"# c #3E833E",
"$ c #3A883F",
"% c #368440",
"& c #3D8644",
"* c #3C8B42",
"= c #468641",
"- c #4C8741",
"; c #418C42",
": c #4D8E45",
"> c #548D44",
", c #449446",
"< c #4B9546",
"1 c #499847",
"2 c #479648",
"3 c #4B9749",
"4 c #4B9A49",
"5 c #569347",
"6 c #569749",
"7 c #5D9549",
"8 c #549C4B",
"9 c #5A9D4C",
"0 c #639447",
"q c #6A9749",
"w c #649A4B",
"e c #6D9B4B",
"r c #53A14D",
"t c #5AA14D",
"y c #62A34F",
"u c #6DA34F",
"i c #76A44F",
"p c #7AA14F",
"a c #67A650",
"s c #6BA651",
"d c #6FA852",
"f c #75A450",
"g c #73AA53",
"h c #7CAC54",
"j c #82A652",
"k c #89A652",
"l c #8AAE56",
"z c #93AC55",
"x c #87B157",
"c c #8DB458",
"v c #94B559",
"b c #9AB459",
"n c #9DBA5C",
"m c #A5B75B",
"M c #A2BA5D",
"N c #ADBD5E",
"B c #B3BE5F",
"V c #AFC160",
"C c #B5C362",
"Z c #BBC462",
"A c #C1C764",
"S c #C4C965",
"D c #CBCB66",
"F c #D0CD67",
"G c #D2CE68",
"H c #D8CF69",
"J c #D7D069",
"K c #DBD16A",
"L c #E5D56D",
"P c #E9D76E",
"I c #EBD86E",
/* pixels */
"IIIIIIIIIIIIIIIIIIIIIIIIIIIIIIII",
"IIIIIIIIIIIIIIIIIIIIIIIIIIIIIIII",
"IIIIIIIIIIIIIIIIIIIIIIIIIIIIIIII",
"IIIIIIIIIIIIIIIIIIIIIIIIIIIIIIII",
"IIIIIIIIPPPIPPPPIPPPIIIIIIIIIIII",
"IIIIIIIPPLKKHHHHJJKKKLPIIIIIIIII",
"IIIIIPLKJGDSZZCCCCZSDGKLIIIIIIII",
"IIPLLKGSZNbvvvvccvvnMNSHLPIIIIII",
"PPKKGSCMlpqwugdssdghffzBGLPIIIII",
"KKDZNbvh0-=:888<<38t70qzZKPIIIII",
"DZmzjigy=#;6r1*O.O*4t97imFLIIIII",
"Nvjq>>98$$1441*OXO*1rt9ebSKPIIII",
"xhu5##<<1,21442*;,14488svAHPPIII",
"say6$$144112,214842*149dvZHPIIII",
"t98<,,11144,%@*442%%%1tdvZHPIIII",
"4444841114r,oX%4r2% @1tacCHPIIII",
"42444r2444r4+o*4r2+.@2tacCJPPIII",
"2444**24444*++*4r2*+%2tdvZJPIIII",
"14r*@$244444**244r**219gvZKPIIII",
"11*+.+*4***4rr2***2rr46gvZKIIIII",
"1*+  +*2*+*4r1*+++**rr6wvSKPIIII",
"4*+++*2*++*444@o.o*4rr:0bDLPIIII",
"42%**24*+ .%*42****2**-emDLPIIII",
",221444*%o.+*44222rr**>jCHPIIIII",
"+*24441,****4441144436sbAKPIIIII",
"+*24412444442222141<9acCFPPIIIII",
" %4r422444r4$@*481;;8hnZJLPIIIII",
"++*41242444*+.*4r4&#7lNDLPIIIIII",
" +%%+*,441%O..&4r9:-qzZHPIIIIIII",
"+X..++*44*@o.O*4rt9ekNFLPIIIIIII",
"%o.o%%%*12*@@*28tshvVDKPPIIIIIII",
"%%X%%%++,4111149ygvBDKLIIIIIIIII"
};
