/* XPM */
static char *result[] = {
/* columns rows colors chars-per-pixel */
"32 32 70 1 ",
"  c #247436",
". c #267638",
"X c #2C7B3A",
"o c #327C3C",
"O c #367F41",
"+ c #33833D",
"@ c #3D833E",
"# c #41803D",
"$ c #378641",
"% c #3B8543",
"& c #3B8B42",
"* c #498640",
"= c #438D43",
"- c #4C8B42",
"; c #538D44",
": c #449446",
"> c #4C9346",
", c #489847",
"< c #479748",
"1 c #499748",
"2 c #4B9B4A",
"3 c #519145",
"4 c #5C9046",
"5 c #539D4B",
"6 c #5C9C4B",
"7 c #639649",
"8 c #6A964A",
"9 c #649B4B",
"0 c #6B9C4C",
"q c #749D4C",
"w c #789F4E",
"e c #51A14C",
"r c #5CA14D",
"t c #64A34F",
"y c #6BA34F",
"u c #7AA04F",
"i c #67A550",
"p c #6BA651",
"a c #6EA952",
"s c #7CA551",
"d c #73AA53",
"f c #7BAC54",
"g c #80A351",
"h c #82AC54",
"j c #8BAC54",
"k c #94AE56",
"l c #86B056",
"z c #8CB157",
"x c #8CB358",
"c c #9BB057",
"v c #93B559",
"b c #9AB65A",
"n c #9DBA5C",
"m c #A2B75B",
"M c #A4BA5D",
"N c #ACBE5F",
"B c #B1BC5F",
"V c #AEC060",
"C c #B4C261",
"Z c #BBC463",
"A c #C2C764",
"S c #C6CA65",
"D c #CACC67",
"F c #D1CC67",
"G c #D4CE68",
"H c #D8CF69",
"J c #D7D069",
"K c #DCD26A",
"L c #E5D56D",
"P c #EBD86E",
/* pixels */
"PPPPPPPPPPKSNxa6521:,<22++X%$..%",
"PPPPPPPPLJAMhy6522:&++&2,++$O  O",
"PPPPPPPLKSMu4-35e<@X  +<e,&+  ..",
"PPPPPPPLGVj9#o=2e<+  +&,2e&&+++X",
"PPPPPPLJZMfr@X&2e<+ +&22,<<<:<&+",
"PPPPPPLFCxfr=$&22,&+&e22,<22ee:+",
"PPPPPPKSMft5,::<2<,,22222<2<22&+",
"PPPPPLJZx9>:2222,222:&&&&<2222<$",
"PPPPPLDNs-oo:2222ee2$  ++222222&",
"PPPPPLSm7#X+&,:&&&&<&+  +<2&&&&2",
"PPPPPHAv4@&12,$. +&,2&$ +&2+  $&",
"PPPPLGZx6-12e2+X +&2ee&$+,&+ +&&",
"PPPPLGCx95,222::&&22e2<&,,$+ &,2",
"PPPPLFVlp52,::,22<<&&,2222&&+&22",
"PPPPLFClt62:++&2e2&$&<22,,&&,&,,",
"PPPPLFVltee:X $2e&+ $&22,,,2e222",
"PPPPLGVlte5:X &2e<$ +<22<<222,25",
"PPPPLFVzpe2:++&222$+@,222<::15e6",
"PPPPLJCxa52,::,2e2&&:,2222:@=5td",
"PPPPLGCvy5222<:&&:<222::25>@#9fx",
"PPPPLHAb03155:&X++&2ee:%>6637qjB",
"PPPPPLFNw;>251&X +&5e2*o-yfgjcBG",
"PPPPPLJAk8;;6551&22e6-*;0xnMCSGP",
"PPPPPPLGBkw0ydaprida08qskVZDHKLP",
"PPPPPPPLJZVnbvvxxvvvvbMVZDJKLLPP",
"PPPPPPPPLKJSAZCCCCCZASDGKLLLPPPP",
"PPPPPPPPPPLKKJJJJJJGHKLLLPPPPPPP",
"PPPPPPPPPPPPLLLLLLPLLPPPPPPPPPPP",
"PPPPPPPPPPPPPPPPPPPPPPPPPPPPPPPP",
"PPPPPPPPPPPPPPPPPPPPPPPPPPPPPPPP",
"PPPPPPPPPPPPPPPPPPPPPPPPPPPPPPPP",
"PPPPPPPPPPPPPPPPPPPPPPPPPPPPPPPP"
};
