/* XPM */
static char *result[] = {
/* columns rows colors chars-per-pixel */
"32 32 75 1 ",
"  c #1F6F33",
". c #247436",
"X c #297937",
"o c #267638",
"O c #277838",
"+ c #2C7B3A",
"@ c #377F3C",
"# c #337E40",
"$ c #2F803B",
"% c #33833D",
"& c #3B853F",
"* c #3C883F",
"= c #40843F",
"- c #368440",
"; c #3D8645",
": c #3C8C42",
"> c #478541",
", c #4A8641",
"< c #448C43",
"1 c #4C8C43",
"2 c #558B43",
"3 c #449446",
"4 c #4B9546",
"5 c #4A9847",
"6 c #479748",
"7 c #499749",
"8 c #4B9A49",
"9 c #519246",
"0 c #5B9246",
"q c #5E9649",
"w c #539C4B",
"e c #5B9D4C",
"r c #639549",
"t c #699749",
"y c #6C9B4C",
"u c #759D4C",
"i c #53A14C",
"p c #5AA14D",
"a c #64A34F",
"s c #6DA24F",
"d c #74A24E",
"f c #7DA24F",
"g c #6BA651",
"h c #6FA952",
"j c #72A551",
"k c #7AA651",
"l c #72AA53",
"z c #7AAC54",
"x c #87A753",
"c c #82AD55",
"v c #8DAA54",
"b c #93AE56",
"n c #85B157",
"m c #8DB157",
"M c #8DB458",
"N c #94B559",
"B c #9BB55A",
"V c #95B85B",
"C c #9DB85B",
"Z c #A3B45A",
"A c #A4BA5D",
"S c #AABC5E",
"D c #B2BD5F",
"F c #B5C261",
"G c #BBC462",
"H c #BFC864",
"J c #C3C865",
"K c #CBCB66",
"L c #D1CD67",
"P c #D8CF69",
"I c #D7D069",
"U c #DBD16A",
"Y c #E5D56D",
"T c #E9D76D",
"R c #EBD86E",
/* pixels */
";-O@;-+#:i6666888ignSKUTTRRRRRRR",
"#+oO##-:68:::::6iiphbGUTRRRRRRRR",
"+Ooo.$:88:$. $:8ww90fZLUTTRRRRRR",
"o+%%$:6ii:*$ .:6iw<=rbHITTRRRRRR",
"O-363688688:$O:8i5*=rmFLYTRRRRRR",
"O-8i88868ii8*%:885<<enAJUTRRRRRR",
"O-3883388888:666855wplVFIURRRRRR",
"%:688883:*::6i88888iwqkAJUTRRRRR",
"66688886%O.+:88688883=0xGIYTTRRR",
"83:::38:$.O$366:::683<,uALYTRRRR",
"8:$OO*8:OO:366:O.O:8w99tBKYTRRRR",
"6:$. $53%::8i3:$o+:8ipwybJUTRRRR",
"633%.X:83338883:::888wesNHUYRRRR",
"8853%%358866:368i88:38ehNGUTTRRR",
"8886336568i6:$:888:+%8pgNGPYRRRR",
"iw8888556883+O:6i8+.%8igMFUTRRRR",
"aew8885588i:Xo:8i8$.+8pgmFIYTRRR",
"zsaw63688883%$:888:+:7ilMGUYRRRR",
"Vnle**3588883368i8::68elNGUTRRRR",
"FCcr@&486:38888:::8i88ehCJUYRRRR",
"KFbu21w8:*38i3:XO-:8piqyZJYTRRRR",
"UKDbfdge;@<8w7:O.+:8ie0uALYTRRRR",
"YULGSCMj0,>1wqw737wee0tvGUTRRRRR",
"RYYIKHFCvdrrglhgagllyjbDLYRRRRRR",
"RRTYYUKJFSCNVNMMMMNVCAGLYTRRRRRR",
"RRTRTYYYUKKJHGFFFFFGJKPYTTRRRRRR",
"RRRRRTTTTYYUUPPIIIPPUYTTTRRRRRRR",
"RRRRRRTTRRTTYYYYYTYTYTRRRRRRRRRR",
"RRRRRRRRRRRRRRRRRRRRRRRRRRRRRRRR",
"RRRRRRRRRRRRRRRRRRRRRRRRRRRRRRRR",
"RRRRRRRRRRRRRRRRRRRRRRRRRRRRRRRR",
"RRRRRRRRRRRRRRRRRRRRRRRRRRRRRRRR"
};
