/* XPM */
static char *e2840adc04d64e10a4b4faa2869a92deqwBDpHfVuEx86GDY[] = {
/* columns rows colors chars-per-pixel */
"32 32 178 2 ",
"   c #060606",
".  c #090607",
"X  c #060907",
"o  c #0A0B07",
"O  c #070D08",
"+  c #0A0B09",
"@  c #110F0A",
"#  c #0A1307",
"$  c #0B1409",
"%  c #0D1B0A",
"&  c #13160B",
"*  c #121C0C",
"=  c #1A1B0B",
"-  c #121C10",
";  c #241B0F",
":  c #2C1710",
">  c #2A1C11",
",  c #0D240A",
"<  c #0D2B0B",
"1  c #12210D",
"2  c #1B230F",
"3  c #112B0E",
"4  c #0C310B",
"5  c #0F3B0F",
"6  c #11340F",
"7  c #11380F",
"8  c #152412",
"9  c #1B2614",
"0  c #162B13",
"q  c #1A2C15",
"w  c #1D2D19",
"e  c #0F3E10",
"r  c #173313",
"t  c #1B3117",
"y  c #123C11",
"u  c #193A16",
"i  c #1E331A",
"p  c #27230F",
"a  c #29230F",
"s  c #2C2412",
"d  c #242B16",
"f  c #2C2D15",
"g  c #212E1B",
"h  c #3A2613",
"j  c #362914",
"k  c #3B2B15",
"l  c #382F19",
"z  c #22331C",
"x  c #29361B",
"c  c #243A1E",
"v  c #2A381E",
"b  c #363117",
"n  c #37301C",
"m  c #3A341B",
"M  c #353A1F",
"N  c #3A381E",
"B  c #233420",
"V  c #283622",
"C  c #253C21",
"Z  c #2B3D23",
"A  c #313C21",
"S  c #3A3E22",
"D  c #32392A",
"F  c #452E17",
"G  c #45351C",
"H  c #4B341B",
"J  c #46381F",
"K  c #4E391E",
"L  c #53331A",
"P  c #5B341B",
"I  c #503A1E",
"U  c #5D381D",
"Y  c #653A1E",
"T  c #433D22",
"R  c #4C3E22",
"E  c #5A3F23",
"W  c #0F460F",
"Q  c #0F4510",
"!  c #114511",
"~  c #124C12",
"^  c #1F411C",
"/  c #1D4D1B",
"(  c #145514",
")  c #185417",
"_  c #145A14",
"`  c #1C541A",
"'  c #1B5E1A",
"]  c #22471E",
"[  c #20511D",
"{  c #156416",
"}  c #186517",
"|  c #156815",
" . c #186218",
".. c #1B6D1B",
"X. c #264521",
"o. c #2C4226",
"O. c #234C20",
"+. c #2E4629",
"@. c #2D4A2A",
"#. c #334226",
"$. c #3C4125",
"%. c #33462A",
"&. c #3B472A",
"*. c #334C2D",
"=. c #3A4B2D",
"-. c #295A27",
";. c #2D5028",
":. c #32532E",
">. c #325D2E",
",. c #364C31",
"<. c #394E31",
"1. c #335132",
"2. c #3A5131",
"3. c #355E32",
"4. c #3A5B33",
"5. c #216720",
"6. c #2B632A",
"7. c #306A2E",
"8. c #267227",
"9. c #2C742C",
"0. c #3B6235",
"q. c #356C35",
"w. c #317630",
"e. c #387435",
"r. c #347C34",
"t. c #3E793C",
"y. c #444323",
"u. c #4C4223",
"i. c #44432A",
"p. c #464B2E",
"a. c #5B482C",
"s. c #404B31",
"d. c #494C33",
"f. c #514E35",
"g. c #415233",
"h. c #43543A",
"j. c #485539",
"k. c #56563A",
"l. c #5B5B3E",
"z. c #694C32",
"x. c #625D3D",
"c. c #685839",
"v. c #765337",
"b. c #40773D",
"n. c #455E40",
"m. c #7A5C40",
"M. c #4C6444",
"N. c #4F6248",
"B. c #4F6C4D",
"V. c #5D6444",
"C. c #536649",
"Z. c #506949",
"A. c #5D7455",
"S. c #696141",
"D. c #666648",
"F. c #636B4B",
"G. c #726445",
"H. c #7F6546",
"J. c #7F6A4B",
"K. c #657D5D",
"L. c #6D7A5A",
"P. c #787454",
"I. c #805D40",
"U. c #816749",
"Y. c #896749",
"T. c #906F50",
"R. c #87795B",
"E. c #927353",
"W. c #388237",
"Q. c #3B823D",
"!. c #3D8B3D",
"~. c #41813F",
"^. c #428541",
"/. c #438B42",
"(. c #469445",
"). c #489748",
"_. c #489848",
"`. c #688261",
/* pixels */
"_.(.b.2.=.=.2.2.<.<.2.<.2.*.%.4.^.(.b.,.<.<.2.2.2.2.2.2.=.0.^._.",
"_.(.t.2.,.<.g.g.g.2.g.g.h.2.%.4.^.(.b.,.<.2.2.2.h.g.g.2.=.0./.).",
"_.(.t.2.j.l.S.l.V.c.c.V.V.M.<.4.b.(.4.,.h.Z.B.C.x.S.S.l.s.0.^.).",
"(./.q.*.k.H.T.Y.H.U.U.J.L.A.h.:.e.~.>.<.C.K.`.L.P.E.T.G.d.3.Q.).",
"(./.q.o.f.m.Y.I.S.D.D.D.A.B.=.;.7.W.;.=.N.K.`.K.L.R.E.H.d.3.Q.(.",
"!.r.-.C T z.v.z.k.n.n.n.M.j.V c 5.w.] z <.M.B.M.B.F.G.c.i.3.W.(.",
"w.9.O.w n E a.p.,.,.1.,.p.T d 0 / 5.u 9 g C Z +.@.%.=.$.Z ;.r.!.",
"8.5.! 8 s J i.%.@.+.@.%.R H ; , Q  .y * % * % - - 8 8 8 9 C 6.w.",
".. .! % g $.=.*.+.+.@.%.u.L ; , Q | } 7 #       X X + X + - i ^ ",
"_ ~ 4 $ - B C c c C C v m k = % 4 ( | Q #   . o . + + . + + $ 8 ",
"3 < $ X + + % 1 1 1 1 8 2 * # % , < 4 < # $ = > > > > ; > = * % ",
"$ $ $ + . . $ % 1 % % % # = , % * % % % % * j P J H H L E j = $ ",
"$ $ = ; : ; p 0 t 0 , # = s d g w q g 8 * 1 k E y.y.K U Y l = % ",
"% % p I U I $.%.,.o.8 * a K $.%.@.+.=.C 1 % a J o.Z N H L j = % ",
"% % p H K $.o.o.@.Z 8 % 9 $.%.o.o.o.@.c 1 % d #.o.o.M N L j = % ",
"% * p G S %.o.o.+.C 8 % 0 o.o.o.+.o.%.c 1 % z *.;.+.@.%.u.b 1 % ",
"% % 9 A #.+.o.o.%.C 0 % 0 +.o.o.o.#.*.z % % i @.*.+.@.+.&.z 8 % ",
"$ $ 8 +.C c c o.*.X.8 % 0 o.+.X.C C o.c 8 $ 8 V B i i B B 9 % $ ",
"+ + - +.w 8 q %.2.@.q % 0 =.<.o.q 3 o.o.8 $ + + . + + + + +     ",
"  X & g 0 , 1 z V q $ $ - c C r % # 8 z r , # O O + + O O + O + ",
"+ + $ = 5 W 6 * & + . X $ * 1 % o   # 3 ! ~ Q e e 5 e e Q e y e ",
"< , , , W _ Q , X   + + % * 1 & @ + o , 7 ~ ~ ~ ~ ~ ~ ~ ~ ( _  .",
"~ ~ Q Q _ { _ ! % $ - w c i f j h s & # , , < < < < < < , 7 ( | ",
"|  . . .` )  .| 4 % w @.1.%.J P Y H p # % * & = & & = & # % ! _ ",
"_ _ / X.o.O.` _ 4 % 0 o.@.o.m P L G = % 0 x l h j F k s & , Q _ ",
"_ _ [ o.D o.[ ( 4 % 9 M *.o.M J H n = , i #.S G H P L k & < Q _ ",
"_ _ / Z D o.[ _ < % p F $.o.o.#.A v 1 % w +.=.S J P P k & , Q _ ",
" ._ / Z D o.` _ 4 % a H J A o.@.@.C - % w +.@.o.N K L j & , W _ ",
"_ _ ] Z D o.[ ( 4 % a L U J S *.@.C * % t @.*.o.%.$.K F & , ~ _ ",
"_ _ ` [ o.O.` _ 4 % = j j s g t i i 8 3 q t z t t g f p & , Q ( ",
"_ _ _ ) ( _ ' _ 3 # & % = * * % * , Q ~ 6 * & , , * * & $ , ~ _ ",
"_ _ _ _ _ _  .( 6 % $ % % % % $ % % ! ( < $ % # % % % % $ , ~ ( "
};
