/* XPM */
static char *af94ae5384cc492da4eb8c2a191cc0d5M2M7oMEu6YXEJ30P[] = {
/* columns rows colors chars-per-pixel */
"32 32 182 2 ",
"   c #1E2521",
".  c #1D2B23",
"X  c #282627",
"o  c #252B25",
"O  c #282D27",
"+  c #2C2328",
"@  c #2B2C2B",
"#  c #322D2B",
"$  c #26302D",
"%  c #2C372D",
"&  c #2C3D2C",
"*  c #32332C",
"=  c #333D2B",
"-  c #3A3A2D",
";  c #302F31",
":  c #353234",
">  c #363934",
",  c #313F38",
"<  c #423E32",
"1  c #2D422B",
"2  c #2E4A2D",
"3  c #34442D",
"4  c #354B2E",
"5  c #3A4C2F",
"6  c #35562E",
"7  c #335A2F",
"8  c #394431",
"9  c #344C33",
"0  c #3A4E31",
"q  c #3E4438",
"w  c #3D4E38",
"e  c #365132",
"r  c #3B5232",
"t  c #365E32",
"y  c #3B5C34",
"u  c #3D513B",
"i  c #3D5938",
"p  c #366133",
"a  c #3B6335",
"s  c #346F34",
"d  c #3A6A36",
"f  c #3E6C39",
"g  c #3C7336",
"h  c #377338",
"j  c #3C743B",
"k  c #3E7D3D",
"l  c #434C32",
"z  c #4B4E35",
"x  c #444A3E",
"c  c #554A3B",
"v  c #425434",
"b  c #4B5536",
"n  c #455936",
"m  c #42543A",
"M  c #435B3B",
"N  c #4C5B3C",
"B  c #505336",
"V  c #545439",
"C  c #5B523B",
"Z  c #555D3A",
"A  c #5D5B3E",
"S  c #644F3D",
"D  c #6A4D3F",
"F  c #635C3D",
"G  c #6A5D3F",
"H  c #45633E",
"J  c #426A3C",
"K  c #5D613F",
"L  c #41763D",
"P  c #42783E",
"I  c #3F7C40",
"U  c #465941",
"Y  c #495D41",
"T  c #4C5B49",
"R  c #5D5C41",
"E  c #655442",
"W  c #6A5441",
"Q  c #625E41",
"!  c #6A5C43",
"~  c #476242",
"^  c #4B6444",
"/  c #4C6A45",
"(  c #4E654A",
")  c #4C6849",
"_  c #566444",
"`  c #586748",
"'  c #546C4C",
"]  c #5E6949",
"[  c #4D7245",
"{  c #407B40",
"}  c #566750",
"|  c #566E50",
" . c #5B6D54",
".. c #557251",
"X. c #5B7253",
"o. c #5D7954",
"O. c #5D755A",
"+. c #636241",
"@. c #6A6243",
"#. c #616B4B",
"$. c #6A6B4A",
"%. c #756646",
"&. c #7A6345",
"*. c #7A6A46",
"=. c #776748",
"-. c #796748",
";. c #756848",
":. c #7B6A4A",
">. c #75704D",
",. c #657555",
"<. c #617857",
"1. c #64755A",
"2. c #637C5C",
"3. c #6C7E5E",
"4. c #777151",
"5. c #7A7656",
"6. c #747C5C",
"7. c #7B7D5D",
"8. c #6A7E62",
"9. c #717966",
"0. c #727768",
"q. c #866C4C",
"w. c #896C4E",
"e. c #986F4F",
"r. c #90714F",
"t. c #8E6F50",
"y. c #847454",
"u. c #8B7352",
"i. c #8D7A57",
"p. c #837C5C",
"a. c #8D7A5A",
"s. c #937353",
"d. c #9A7555",
"f. c #9A7955",
"g. c #9A7D5B",
"h. c #A17754",
"j. c #3C833E",
"k. c #41823F",
"l. c #3E8540",
"z. c #3F8941",
"x. c #428441",
"c. c #488343",
"v. c #438B43",
"b. c #469446",
"n. c #489547",
"m. c #469B47",
"M. c #489847",
"N. c #499749",
"B. c #499A49",
"V. c #52934F",
"C. c #578D53",
"Z. c #598C55",
"A. c #5E8A59",
"S. c #559352",
"D. c #5A9156",
"F. c #539B51",
"G. c #65825E",
"H. c #69815F",
"J. c #62885C",
"K. c #7A815F",
"L. c #47A149",
"P. c #4BA24B",
"I. c #628262",
"U. c #668262",
"Y. c #6A8363",
"T. c #6B8464",
"R. c #6B8566",
"E. c #6C8966",
"W. c #678868",
"Q. c #6D8968",
"!. c #6C8A69",
"~. c #728363",
"^. c #748666",
"/. c #7C8262",
"(. c #788866",
"). c #728B6A",
"_. c #7C8C6A",
"`. c #76906F",
"'. c #729270",
"]. c #7A9572",
"[. c #84835E",
"{. c #8B825F",
/* pixels */
"M.b.P e 5 4 5 e r e e 5 5 5 3 y x.n.f 4 0 0 e e e e 0 0 3 a c.b.",
"M.b.P e 5 v v v v v v v v y 8 y x.b.J e r r r v v v v v 4 a v.B.",
"M.b.j e b +.@.+.+.F G +.] / v y j.n.d r Y ' ' ` +.@.+.Z 0 a x.N.",
"M.b.j e A w.s.u.u.u.u.u.7.2.U y k n.d r ' T.T.R.y.s.s.=.z p l.N.",
"m.b.j 5 R w.d.e.y.7.7.7.E.8.N y k b.d v X.).`.^.(.{.f.q.z t j.N.",
"m.b.j e F w.s.y.6.U.H.Y.T.2.N y k b.p 0 ' H.Y.G.G.K.5.%.z a x.M.",
"N.b.j e F q.i.6.H.I.I.T.9.4.B y k n.p 5 n ^ ^ ^ ^ ) K N 0 a v.B.",
"m.b.j 4 F y.p.8.U.U.U.H.i.w.C y j.B.L e 5 4 4 4 4 4 4 4 3 y c.b.",
"P.m.k r ` K._.!.T.R.T.^.a.r.C y j.P.B.{ 1 o   o . . . .   & a f ",
"b.v.d 3 U  .2.<.o.2.2.2.4.*.B 6 h b.P.x.4 X + * # # # # # * 3 4 ",
"f a e o $ , u M H M Y ~ H b 5 4 t d g p 2 8 c S S G E E W C l 0 ",
"4 9 3 * # # 8 r n r e 0 5 v v i r r r e e v %.s.u.u.u.u.s.;.b 0 ",
"4 5 b E D S R ' ..( i 4 z @.#.X.| '  .T y b *.g.[.[.i.f.g.:.N e ",
"0 r K s.f.a./.T.!.U.^ v G a.K.T.W.Q.).<.M v @.p.H.3.5.u.s.;.b r ",
"e r F r.i.7.T.Y.).2.^ r _ K.~.Y.T.T.).<.M i ] /.Y.2.3.5.r.*.b e ",
"r v K y.[.T.T.Y.T.2.~ r ) T.T.Y.T.T.).O.M i ..).E.E.E.~.{.*.N i ",
"e e _ 8.~.T.U.T.~.2.H 0 ^ Y.Y.Y.Y.T.).o.M r ..Q.T.R.R.T.(.,.M e ",
"0 4 ( 8.8.<.2.8.E.3.^ i ' T.T.Y.2.<.T.<.M r ( 1. . . .O.O.} u 8 ",
"o * T 8.| U ` T.].E.) y ' !.'.Y.' ^ 2.H.Y 3 % : : : : : : ; @ X ",
"@ @ U X./ y J  .1.` w 3 n O.2.) 4 1 ( o.[ y 1 & & & & & & & & & ",
"= = 8 M L k.P m q > @ O 3 M H 0 % o = H c.v.l.k I l.l.k I I I I ",
"a y t t l.m.x.t & X @ > w v n v < - = 6 P v.b.z.v.z.x.v.v.n.B.P.",
"v.v.x.j.b.L.m.x.t 3 U } O.X.$.%.&.! z 6 t a d a d d d a a P N.P.",
"P.P.P.F.S.n.F.B.h r | T.`.~.p.d.h.u.Z e e m z z z z z l - t c.M.",
"B.B.S.J.3.J.S.N.d i _ Y.W.3.5.s.s.q.N e ) ,.4.&.-.:.:.! l p l.N.",
"B.N.Z.8.9.Y.D.n.s r _ 3.Y.U.6.y.y.>.b u ..~.[.y.u.s.s.:.z t l.N.",
"N.N.A.8.9.Y.D.n.s r Q y./.Y.3.~.~.,.M i | T.^.7.u.d.d.:.z p l.N.",
"N.N.C.Y.9.R.D.n.s r ! u.a.~.Y.T.R.2.M r ' R.W.U.6.a.s.=.z t l.m.",
"N.N.Z.8.0.Y.D.b.s 0 ! s.d.i.7.Q.Q.U.m r X.E.).Y.T.[.a.:.z p l.N.",
"N.N.V.J.G.A.S.N.h 0 V @.;.@.#.X.X.| J f / X.X.| ..#.$.F 0 y l.N.",
"n.N.N.N.S.B.B.n.j 0 0 b b v v r i M I v.J r r M i i b v 4 a v.N.",
"N.m.N.m.N.B.B.m.g 5 5 5 e e 0 5 4 y c.b.J 0 9 e e r e 0 3 a c.N."
};
