/* XPM */
static char *d029908675bd4996c8fc9c83d2577d72aVuRmQpWPmgi0I3F[] = {
/* columns rows colors chars-per-pixel */
"32 32 204 2 ",
"   c black",
".  c #080E07",
"X  c #0C010C",
"o  c #0A0D0A",
"O  c #0A170B",
"+  c #07190B",
"@  c #0B1A0A",
"#  c #101F0F",
"$  c #120611",
"%  c #130D12",
"&  c #180E16",
"*  c #1A0E18",
"=  c #131413",
"-  c #131B13",
";  c #181C17",
":  c #1A1318",
">  c #1B1B1B",
",  c #21151F",
"<  c #0B230A",
"1  c #112A0E",
"2  c #132213",
"3  c #182017",
"4  c #1C241C",
"5  c #192B1B",
"6  c #13321A",
"7  c #1B311B",
"8  c #183419",
"9  c #21231E",
"0  c #251622",
"q  c #281424",
"w  c #231C23",
"e  c #281B26",
"r  c #1E3423",
"t  c #232324",
"y  c #282227",
"u  c #242A24",
"i  c #292628",
"p  c #262A28",
"a  c #292B2A",
"s  c #233427",
"d  c #223B25",
"f  c #25342A",
"g  c #2B342C",
"h  c #263B2B",
"j  c #293C2C",
"k  c #30392E",
"l  c #332C32",
"z  c #2F3530",
"x  c #333233",
"c  c #303A30",
"v  c #3D343C",
"b  c #1B4621",
"n  c #274924",
"m  c #26442D",
"M  c #29432E",
"N  c #264C2F",
"B  c #294B2E",
"V  c #30492E",
"C  c #275628",
"Z  c #2D5C2B",
"A  c #31552E",
"S  c #284E30",
"D  c #364635",
"F  c #374936",
"G  c #3C4A3D",
"H  c #265430",
"J  c #285531",
"K  c #265B32",
"L  c #295B33",
"P  c #325333",
"I  c #335B33",
"U  c #1E6128",
"Y  c #286627",
"T  c #26662D",
"R  c #2F652D",
"E  c #30692E",
"W  c #246533",
"Q  c #296435",
"!  c #266B35",
"~  c #296C36",
"^  c #2F6E39",
"/  c #306730",
"(  c #3B6B3B",
")  c #257536",
"_  c #297437",
"`  c #227B37",
"'  c #277638",
"]  c #297538",
"[  c #277B38",
"{  c #2A7C3A",
"}  c #337433",
"|  c #377B36",
" . c #387835",
".. c #34753B",
"X. c #3C753E",
"o. c #317D3E",
"O. c #3B7C3D",
"+. c #443A44",
"@. c #347F41",
"#. c #444E45",
"$. c #435745",
"%. c #4A564A",
"&. c #495D4B",
"*. c #50544F",
"=. c #524752",
"-. c #544954",
";. c #575756",
":. c #555955",
">. c #5C515B",
",. c #426D40",
"<. c #4C614F",
"1. c #437540",
"2. c #427D41",
"3. c #546454",
"4. c #596D59",
"5. c #497C50",
"6. c #5D715C",
"7. c #635963",
"8. c #656264",
"9. c #636A63",
"0. c #696669",
"q. c #6C6A6D",
"w. c #6C726C",
"e. c #697D6A",
"r. c #736B73",
"t. c #7A6E7A",
"y. c #717671",
"u. c #797A79",
"i. c #26833A",
"p. c #29843B",
"a. c #26893B",
"s. c #298A3C",
"d. c #33833D",
"f. c #3B843B",
"g. c #318B3E",
"h. c #368341",
"j. c #3A8444",
"k. c #348D40",
"l. c #3B8A42",
"z. c #3E8748",
"x. c #339141",
"c. c #3C9745",
"v. c #339C42",
"b. c #3C9A45",
"n. c #2FA243",
"m. c #3AA647",
"M. c #458242",
"N. c #418F45",
"B. c #468A4E",
"V. c #449346",
"C. c #439B46",
"Z. c #499947",
"A. c #479649",
"S. c #4A964C",
"D. c #439C49",
"F. c #4A994A",
"G. c #509F4D",
"H. c #4A8455",
"J. c #58885B",
"K. c #4C9552",
"L. c #549D53",
"P. c #53955B",
"I. c #549759",
"U. c #5C915E",
"Y. c #46A64A",
"T. c #4BA54B",
"R. c #47A94B",
"E. c #4EAB4D",
"W. c #51A14E",
"Q. c #50AA4E",
"!. c #4FB14F",
"~. c #56A155",
"^. c #54AE50",
"/. c #5EA35C",
"(. c #4FB352",
"). c #51B552",
"_. c #56BA56",
"`. c #61A65E",
"'. c #5E9A62",
"]. c #6C856C",
"[. c #688A69",
"{. c #669166",
"}. c #629C62",
"|. c #6A956A",
" X c #6D996C",
".X c #6D8871",
"XX c #748C74",
"oX c #788977",
"OX c #7E867E",
"+X c #739674",
"@X c #779976",
"#X c #7B9B7C",
"$X c #62A263",
"%X c #69A56A",
"&X c #6CAB6B",
"*X c #71AD72",
"=X c #7BA57C",
"-X c #7EAA7E",
";X c #838783",
":X c #81A484",
">X c #8EA192",
",X c #93AF94",
"<X c #9BAB9A",
"1X c #93BA94",
/* pixels */
"z.d.' { z.j.{ P.OX=.=.>.%.U.F.Z.Z.S.].=.>.=.-.+XK.{ o.M.j.{ ] h.",
"@.{ ' { @.h.h.:X%.@ 2 5 + $.'.F.~.=XD + 5 # < 3.,XK.d.@.@.) ) @.",
"{ ] ' ' ' z..X%.I  . .} U J <.6.9.&.J U }  .} I *. Xc.{ ) ) ) ' ",
"_ { d.d.{ I.:.O _ _.E.b.g.T 5 $ $ 6 ! x.C.!._.Y O 9.S.d.p.d.d.{ ",
"[ h.V.A.Z.F.4.@ } ).b.p.p.W r * * r W h.i.v.).E - q.*XV.A.Z.V.{ ",
"' f.F./.L.}.:.9 A M.{ ` i.! g q e j ! i.` h.j.B 9 7.<X/.G.L.V.d.",
"' l.{.$.%.#.l y y M ~ a.s.W f q q j ~ x.a.! j y e l +.#.&.@X$Xd.",
"j.=X3.< < 7 d j f f H Q ~ L M s f M L ~ W N f f j d 8 < 2 6.,XI.",
"XXG / O.f.O._ ! ) K h i a m Q ) ) J M a i j Q ! ~ } O.f.| Z #.#X",
"7.. Y ).(.D.d.p.p.' N i 0 g ..v.v...a q i H [ a.i.k.D.).!.C o r.",
"r.; E E.c.{ [ [ { [ _ H i k O.T.Y.X.g i K [ [ [ [ [ p.b.T.Z > u.",
"r.= n X.{ ` [ { [ i.s.) f k M.^.Q.2.g d ' s.p.[ [ ` ' o. .d > ].",
"y.% : j Q p.p.[ { i.a.W f k 2.^.Q.1.g f ! a.i.{ { a.i.Q g % - [.",
"%Xe.v > d L K J Z J K m i j @.m.D.X.j a N K J J J L J r , +.[.~.",
"A.&Xy.4 > a a a a a a a y j _ s.s.~ d e a a p a a a a > , OX*XA.",
"Z.}.;., 5 j M h h j m j i a B J J m a a h m M j j M j 4 9 8.-XF.",
" Xc 0 t H ' ' ~ ~ ) { W j y u i a y y j Q [ _ ~ ~ [ ] S t 0 D }.",
"q.o 5 I _ i.i.p.s.p._ B u y g M m g y a H _ p.s.p.i.[ ] P ; % ].",
"t.> Z V.d.' ' [ i._ m y e g Q [ { L f e y S [ p.[ ' ) k.N.C 4 ].",
"t.u } !.Y.k.p.` W M i y j J ' s.a._ J f y i S W [ s.k.R.E./ u ].",
"t.5 / E.W.D.k.! M e e f Q [ [ [ { [ [ Q f e y m ) x.Z.Q.T.Z t ].",
"0.o 8 ( 1.( L M y q e M ! p.[ ' ' [ i.W f q q y m I ( 1.( 6 o J.",
"[.4 > i g a a a y t e h W p.' ` ' { i.W g y y i i i a a u ; w [.",
"V.U.x X $ t f m H M a c O.v.{ ) ) i.c. .g a m H B f w $ X v OX$X",
"d.l.J.> * a Q i.h.W r z 2.D.d.) [ d.D.1.g f ! s.[ L a & 9 oX%Xl.",
"[ d.F.XX+.s } m.n.) f a G @.l.b.c.M.@.F y M [ n.m.^ u +.oX`.V.{ ",
"_ f.Z./.8.4 R D.k.U r 0 0 j M.E.T.O.j , w d W s.C.Z 5 w.&XW.A.d.",
"[ d.S.F.4.o 1 C b 6 ; % X > V ,.,.V : X % 3 6 b n 1 # J.Z.Z.V.o.",
"' { d.d.5.u 9 c z l g z z a t 9 t y a x g l c D D j I j.d.d.d.o.",
"{ [ ' ) { H.U. X@X+XP.5.H.e.l     l ;X>X.XJ.B.S.L.S.N.{ ) ) ' _ ",
"h.{ ' ] @.@.h.N.S.S.N.h.h.I.4.- ; 9.1XK.l.k.V.Z.V.f.@.@.o.] ' d.",
"B.@.] { B.j.{ d.V.`.L.C.C.S.L.|.+X=XF.F.V.Z.Z.Z.l.{ { z.j.] { j."
};
